<?xml version="1.0" encoding="UTF-8"?>
<!DOCTYPE svg PUBLIC "-//W3C//DTD SVG 1.1//EN" "http://www.w3.org/Graphics/SVG/1.1/DTD/svg11.dtd">
<!-- Creator: CorelDRAW 2021 (64-Bit) -->
<svg xmlns="http://www.w3.org/2000/svg" xml:space="preserve" width="6.94444in" height="6.94444in" version="1.1" style="shape-rendering:geometricPrecision; text-rendering:geometricPrecision; image-rendering:optimizeQuality; fill-rule:evenodd; clip-rule:evenodd"
viewBox="0 0 6944.44 6944.44"
 xmlns:xlink="http://www.w3.org/1999/xlink"
 xmlns:xodm="http://www.corel.com/coreldraw/odm/2003">
 <defs>
  <style type="text/css">
   <![CDATA[
    .str0 {stroke:#11009A;stroke-width:27.78;stroke-miterlimit:2.61313}
    .fil8 {fill:#0E0093;fill-rule:nonzero}
    .fil4 {fill:#11009A;fill-rule:nonzero}
    .fil14 {fill:#5D79E2;fill-rule:nonzero}
    .fil7 {fill:#8295F4;fill-rule:nonzero}
    .fil13 {fill:#8593FF;fill-rule:nonzero}
    .fil1 {fill:#9EAAFF;fill-rule:nonzero}
    .fil10 {fill:#A1ACFF;fill-rule:nonzero}
    .fil2 {fill:#DBDFFF;fill-rule:nonzero}
    .fil11 {fill:#E82172;fill-rule:nonzero}
    .fil0 {fill:#F0EFFD;fill-rule:nonzero}
    .fil5 {fill:#F99589;fill-rule:nonzero}
    .fil9 {fill:#FF498A;fill-rule:nonzero}
    .fil12 {fill:#FF7CB1;fill-rule:nonzero}
    .fil6 {fill:#FFBFB3;fill-rule:nonzero}
    .fil3 {fill:white;fill-rule:nonzero}
   ]]>
  </style>
 </defs>
 <g id="OBJECTS">
  <metadata id="CorelCorpID_0Corel-Layer"/>
  <g id="_2067969708288">
   <g>
    <g>
     <path class="fil0" d="M5163.07 5190.07l6.41 -0.04c-2.39,-0.87 -4.52,-0.69 -6.41,0.04z"/>
    </g>
    <g>
     <path class="fil0" d="M5156.8 5200.42c1.79,-3.29 3.51,-6.61 5.3,-9.91 -8.27,4.35 -10.89,20.2 -5.3,9.91z"/>
    </g>
    <g>
     <path class="fil0" d="M5162.1 5190.51c0.31,-0.17 0.64,-0.31 0.97,-0.44l-0.74 0c-0.08,0.15 -0.15,0.29 -0.23,0.43z"/>
    </g>
    <g>
     <path class="fil0" d="M5636.29 2926.74c-70.47,-349.83 -300.18,-684.94 -638.9,-797.28 -265.2,-87.95 -562.61,-29.56 -808.61,102.92 -246.01,132.47 -448.17,332.83 -635.33,540.28 -221.36,245.34 -444.8,516.83 -759.73,616.9 -205.29,65.23 -430.85,48.42 -635.34,-19.28 -131.37,-43.5 -263.19,-108.39 -400.69,-92.8 -197.04,22.35 -339.06,204.36 -408.41,390.13 -193.7,518.84 18.42,1122.04 397.16,1526.11l3415.89 -3.64c203.69,-376.54 266.38,-794.88 382.51,-1206.93 96.81,-343.48 161.92,-706.57 91.45,-1056.41z"/>
    </g>
    <g>
     <polygon class="fil1" points="4977.7,2824.82 3466.85,2824.82 3466.85,1809.89 4977.7,1809.89 "/>
     <path class="fil2" d="M3537.82 1871.95l0 824.39c237.65,-276.92 471.01,-557.1 718.03,-824.39l-718.03 0z"/>
     <g>
      <path class="fil3" d="M4255.85 1871.95c-247.02,267.29 -480.38,547.48 -718.03,824.39l0 66.43 349.96 0c218,-300.54 441.07,-597.98 669.45,-890.82l-301.38 0z"/>
     </g>
     <path class="fil2" d="M4906.72 1983.94c-197.07,259.48 -414.68,502.87 -588.74,778.82l588.74 0 0 -778.82z"/>
     <g>
      <path class="fil3" d="M4906.72 1871.95l-48.21 0c-234.96,291.35 -465.62,584.65 -682.91,890.82l142.39 0c174.06,-275.95 391.67,-519.35 588.74,-778.82l0 -112z"/>
     </g>
     <path class="fil2" d="M4557.23 1871.95c-228.38,292.84 -451.45,590.28 -669.45,890.82l287.82 0c217.29,-306.17 447.95,-599.47 682.91,-890.82l-301.28 0z"/>
    </g>
   </g>
   <g>
    <g>
     <g>
      <path class="fil3" d="M3305.24 4168.46l-504.78 191.1 -111.56 -206.49c7.03,-7.32 14.25,-14.54 21.28,-21.95 11.88,-12.64 23.47,-25.46 34.87,-38.48 0.67,-0.76 3.9,-3.61 5.13,-5.42 1.14,-0.67 2.28,-1.24 2.56,-1.43 10.55,-5.04 20.91,-10.55 31.27,-15.87 18.43,-9.41 36.87,-18.91 55.21,-28.6 71.55,-37.92 141.3,-78.97 209.15,-123.35 23.38,-15.2 74.59,-42.38 56.54,-77.44 -6.84,-13.21 -21.1,-20.43 -35.73,-17.96 -15.87,2.66 -31.93,8.08 -47.42,13.21 1.61,-1.33 3.23,-2.57 4.75,-3.89 14.25,-12.26 27.94,-25.37 40.48,-39.53 10.17,-11.5 24.04,-24.52 17.01,-41.34 -5.52,-13.2 -20.05,-18.15 -32.88,-12.73 -12.83,5.32 -24.99,14.06 -36.78,22.61 3.9,-3.89 7.8,-7.89 11.69,-11.78 11.69,-11.69 21.95,-26.13 15.87,-43.33 -6.46,-18.34 -23.94,-21.09 -40.1,-13.21 -18.62,9.03 -36.59,20.15 -54.64,30.31 -29.74,16.82 -59.3,34.02 -87.8,52.93 -18.91,12.54 -36.87,26.13 -54.36,40.2 11.31,-26.61 21,-53.79 29.37,-81.44 8.17,-27.56 19.67,-69.28 -14.26,-84.86 -5.89,-2.66 -11.5,-1.33 -15.3,3.99 -39.91,56.44 -78.49,113.93 -119.26,169.71 -19.48,26.51 -40.96,49.98 -67.94,68.99 -5.04,3.61 -10.07,7.22 -15.11,10.83 -3.89,2.85 -8.17,4.66 -12.73,6.08l-109.47 -307.69c59.49,-30.6 349.69,-175.8 563.03,-205.54 28.04,76.69 198.32,544.78 261.89,772.37z"/>
      <path class="fil4" d="M3805.07 4524.23l76.11 0c36.59,0 69.65,21.76 84.19,55.31l206.97 477.13c-0.09,-0.95 -0.19,-1.81 -0.19,-2.66 -5.22,-87.33 -5.03,-184.73 50.27,-257.81 3.52,-4.75 7.31,-9.22 11.21,-13.4 -0.48,-47.8 -0.48,-253.91 31.36,-437.21 30.12,-173.71 34.5,-380.96 32.88,-450.42 -7.41,15.77 -14.25,31.83 -19.95,48.27 -12.36,35.35 -20.91,72.31 -26.52,109.37 -0.85,5.99 -8.55,7.79 -13.11,5.32 -59.96,-31.74 -122.02,-59.77 -182.26,-91.23 -3.9,-2.09 -9.6,-4.27 -15.2,-6.93 -0.28,0.19 -0.48,0.47 -0.76,0.67 -0.95,1.04 -2.09,2 -3.33,2.56 -42.86,33.45 -85.24,67.56 -126.57,102.82 -79.35,67.66 -155.18,139.88 -223.69,218.65 -64.71,74.31 -121.73,155.08 -172.09,239.56l269.96 0c-0.28,-0.95 -0.38,-1.9 -0.38,-2.85 1.04,-20.15 6.08,-40.48 10.17,-60.15 4.19,-19.67 9.03,-39.15 14.63,-58.44 11.59,-39.63 26.23,-77.54 42,-115.74 2.94,-7.13 14.63,-4.28 11.88,3.32 -13.97,37.44 -24.61,76.69 -34.11,115.56 -4.56,18.81 -8.65,37.72 -12.45,56.73 -4.09,20.33 -6.08,41.43 -11.02,61.57zm1545.41 673.07l0 0c21.48,2.19 21.48,31.36 0,33.45 -69.84,6.84 -140.54,6.08 -210.77,7.89 -67.66,1.71 -135.5,0.76 -203.17,0.95 -137.98,0.47 -275.96,0.67 -413.93,0.76 -489.19,0.38 -978.39,2.76 -1467.57,1.61 -243.36,-0.48 -486.72,-0.85 -729.99,-2.28 -245.83,-1.52 -492.14,1.61 -737.59,-13.4 -15.78,-0.95 -15.78,-23.57 0,-24.52 253.06,-15.49 507.34,-12.83 760.87,-13.59 -34.3,-63.09 -56.44,-130.66 -64.24,-202.31 -4.09,-37.35 -4.28,-75.17 -0.09,-112.51 2,-18.24 4.85,-36.58 8.84,-54.54 2,-9.12 4.75,-18.06 7.5,-27.08 1.14,-3.8 1.81,-7.51 3.33,-10.65 -10.83,-2.09 -21.76,-3.99 -32.59,-5.22 -6.94,-0.76 -11.12,-4.85 -11.78,-11.69 -4.37,-43.62 -3.7,-88.28 -3.23,-131.99 0.38,-40.29 1.14,-80.77 3.9,-120.97l14.07 -0.28c0.76,40.48 0.95,80.77 2.47,121.25 1.61,40.86 5.04,81.81 5.99,122.68 20.81,5.13 42.67,7.6 63.76,10.64 23.09,3.33 46.28,5.7 69.56,7.98 45.52,4.37 91.22,6.93 136.93,7.6 45.71,0.57 91.51,-0.76 137.22,-3.89 22.81,-1.52 45.52,-3.7 68.23,-6.27 15.39,-1.71 30.5,-4.56 45.61,-5.23l-74.97 -172.85c-6.65,-15.2 -5.13,-32.59 3.99,-46.47 9.02,-13.78 24.42,-22.14 40.96,-22.14l221.22 0 9.31 -2.09 0.48 2.09 490.14 0c20.72,-43.43 44.66,-84.67 71.56,-124.48 -6.27,-12.93 -10.83,-26.89 -15.49,-40.29 -5.89,-17.11 -11.02,-34.5 -16.06,-51.79 -9.69,-33.26 -18.25,-66.9 -25.94,-100.63 -55.49,-243.55 -67.66,-495.37 -136.65,-736.06 -2,-6.94 8.55,-9.7 10.74,-2.95 21.57,66.9 38.39,135.22 52.74,203.93 11.02,53.12 20.24,106.52 28.98,160.12 0.28,0.28 0.57,0.67 0.76,1.14 29.65,-29.84 60.72,-58.34 91.31,-87.14 57.78,-54.45 116.03,-108.52 174.28,-162.59 7.6,-7.03 15.11,-14.06 22.71,-21.09 -24.9,-19.67 -47.7,-42 -71.08,-63.57 -26.51,-24.52 -53.02,-49.13 -79.44,-73.83 -79.63,-74.69 -158.31,-156.98 -254.67,-210.1 -50.08,-27.65 -104.34,-43.8 -161.35,-48.08 -57.21,-4.18 -114.51,1.05 -171.52,6.28 0.09,0.47 0.29,0.95 0.38,1.42 0.95,4.94 -0.67,10.07 -5.13,12.74 -39.91,23.28 -78.68,47.8 -115.45,75.74 -37.35,28.31 -70.8,60.72 -105.39,92.27 -4.28,3.9 -10.74,3.13 -13.97,-1.8 -19,-30.03 -40,-59.2 -58.63,-89.61l-9.22 2.09 -6.84 -29.84c-0.28,-0.47 -0.57,-0.86 -0.76,-1.33 -22.14,41.24 -50.46,79.25 -75.45,118.69 -3.23,4.94 -9.69,5.7 -13.97,1.8 -34.59,-31.55 -68.04,-63.95 -105.38,-92.27 -35.35,-26.8 -72.5,-50.46 -110.71,-72.98 -45.61,0.85 -89.89,14.06 -129.9,35.82 -75.74,41.34 -131.99,107.85 -183.11,175.8 -51.79,68.7 -101.2,139.02 -148.05,211.15l-11.31 -6.75c23.76,-43.24 50.94,-84.38 77.93,-125.72 88.47,-135.41 206.87,-307.59 386,-311.87 5.32,-24.23 13.2,-47.42 23.85,-69.85 1.52,-3.13 5.89,-5.7 9.31,-5.32 26.8,2.38 53.59,4.47 80.39,6.75 -1.9,-4.85 -3.23,-9.98 -4.94,-14.44 -3.8,-10.17 -7.8,-20.15 -11.88,-30.22 -8.17,-20.43 -16.72,-40.77 -25.56,-61.01 -16.35,-37.06 -35.07,-73.64 -50.17,-111.27 -7.89,3.33 -16.15,6.08 -24.42,8.17 -28.13,6.94 -58.06,6.75 -85.91,-1.24 -53.02,-15.3 -91.89,-55.4 -113.08,-105.19 -20.62,-48.46 -27.94,-108.81 -3.61,-157.37 20.81,-41.72 69.28,-58.15 113.46,-51.6 -24.32,-37.54 -49.51,-73.93 -67.66,-115.46 -31.36,-71.93 -61.86,-162.3 -31.17,-239.65 12.26,-30.79 34.69,-56.73 67.37,-66.24 21.86,-6.27 48.46,-4.85 67.66,8.17 -6.84,-55.4 0.09,-111.85 21.28,-163.73 24.04,-58.72 63.95,-104.53 112.89,-143.96 86.48,-69.56 187.49,-126.1 298,-144.44 98.74,-16.44 205.17,-0.38 289.74,55.02 42.57,27.85 81.25,66.52 102.63,113.18 24.14,52.74 17.48,110.13 -6.27,161.83 -16.44,35.82 -41.15,67.28 -71.18,91.98 5.61,1.71 10.93,4.09 15.58,6.37 14.64,7.32 27.46,18.81 37.54,31.55 24.04,30.12 32.02,68.13 30.12,106.14 -2.19,44.57 -15.39,88.47 -28.22,130.94 -6.65,22.05 -13.78,43.9 -21.29,65.76 -2.18,6.27 -4.37,12.64 -6.56,19.1 65,13.59 99.69,90.65 106.53,151.94 8.65,79.16 -29.46,152.99 -103.87,184.26 -0.67,0.29 -1.24,0.38 -1.9,0.57 -1.14,3.9 -2.28,7.79 -3.7,11.69 -31.83,89.32 -111.84,153.09 -197.37,188.06 -1.33,0.57 -2.57,0.95 -3.9,1.52 0.09,0.67 0.28,1.24 0.38,1.9 0.38,3.42 0.76,6.94 1.14,10.45 0.76,6.75 1.33,13.49 2.28,20.15 0.95,6.65 1.62,13.49 2,20.24 0.19,4.66 0.95,11.31 -0.57,16.44 25.28,-2.09 50.56,-4.09 75.83,-6.37 3.42,-0.38 7.79,2.19 9.31,5.32 9.03,19.01 16.06,38.48 21.29,58.73 65.95,-10.17 133.13,-18.25 199.74,-10.26 111.75,13.4 205.16,76.69 287.64,149.67 44.47,39.34 87.43,80.58 130.94,121.06 24.23,22.52 48.18,45.14 72.22,67.75 22.14,20.91 45.04,41.15 65.28,63.76 2.19,-1.99 4.28,-3.99 6.37,-5.98 10.45,-9.6 23.09,-26.52 38.77,-25.85 15.58,0.67 31.17,17.3 42.85,26.32 14.63,11.31 28.89,23.19 42.86,35.35 3.23,2.76 4.08,9.12 1.61,12.54 -23.47,32.98 -48.08,65.38 -73.83,96.93 6.27,6.46 12.07,13.78 17.77,20.33 9.79,11.02 19.58,21.95 29.18,33.07 18.72,21.67 37.15,43.62 55.87,65.28 33.35,38.48 65.28,78.3 96.74,118.31 3.42,-5.7 7.7,-11.02 10.17,-15.39 16.82,-29.56 32.41,-59.68 50.27,-88.56 4.56,-7.51 13.5,-5.7 17.39,-0.38 5.8,0.09 11.5,0.09 17.3,0.38 -0.09,-1.71 -0.09,-3.52 0.09,-5.32 0.38,-3.7 0.95,-7.41 1.52,-11.12 1.05,-6.56 2.37,-13.02 3.89,-19.48 1.52,-6.37 3.04,-12.83 4.94,-19.2 0.86,-2.85 1.52,-6.08 2.47,-9.21 -12.83,-3.33 -25.37,-7.22 -37.72,-11.88 -40.77,-15.2 -79.25,-38.11 -108.71,-70.61 -32.78,-36.3 -52.26,-82.48 -60.44,-130.37 -4.56,-27.08 -6.18,-54.45 -5.99,-81.81 -21.57,6.65 -48.65,-27.84 -58.82,-42.67 -29.07,-42.29 -37.91,-103.2 -18.62,-151.19 9.98,-24.8 34.11,-48.46 63.09,-40.1 9.31,2.76 16.44,8.55 22.14,16.06 -12.83,-58.63 -21.67,-119.54 -12.64,-178.27 8.55,-55.5 48.84,-118.02 110.04,-119.92 -12.26,-16.16 -22.9,-33.64 -31.36,-52.26 -13.97,-30.89 -23.19,-65.67 -22.24,-99.78 0.76,-28.7 10.64,-61.48 33.45,-80.48 28.51,-23.85 65.28,-11.41 92.94,7.51 18.34,12.44 34.21,27.84 47.42,45.23 -2.85,-28.13 -2.47,-56.63 7.03,-83.43 10.83,-30.31 34.21,-57.02 65.09,-67.66 35.16,-12.07 67.18,5.51 93.6,27.94 22.14,18.91 40.96,40.86 56.26,65.38 4.37,-20.81 17.11,-39.53 34.5,-53.21 58.72,-45.99 135.5,-12.54 185.39,30.22 51.69,44.38 88.47,104.91 106.62,170.48 26.51,-8.17 55.3,-0.38 77.73,16.25 58.35,43.24 55.69,122.01 44.38,186.25 -6.75,38.3 -16.44,76.02 -29.17,112.8 -6.27,17.77 -13.11,35.35 -20.62,52.74 -5.8,13.49 -11.97,28.32 -20.33,40.96 29.17,3.8 56.44,17.96 74.5,42.95 29.46,40.67 16.44,95.12 -1.9,137.6 -29.94,69.08 -94.93,118.02 -167.06,127.43 -0.09,0.09 -0.09,0.19 -0.19,0.29 -37.44,81.53 -110.61,135.22 -192.62,165.53 3.42,7.03 6.56,14.26 9.41,21.57 1.9,5.04 3.7,10.07 5.04,15.2 0.67,2.28 1.33,4.66 1.9,6.94 0,0.19 0,0.38 0.09,0.48 6.37,-3.14 12.64,-6.37 18.81,-9.98 4.56,-2.57 12.54,-1.52 14.92,3.89 15.2,35.63 28.13,72.31 45.99,106.81 0.29,0.57 0.38,1.14 0.57,1.71 1.42,0.19 2.94,0.38 4.46,0.67 3.61,0.76 7.13,1.61 10.74,2.66 3.52,0.95 7.03,2 10.55,3.04 1.9,0.57 3.8,1.14 5.61,1.9 0.95,0.28 1.81,0.67 2.66,0.95 2.09,0.95 3.61,1.9 4.94,3.23 5.7,-9.31 11.88,-18.43 18.53,-27.18l10.64 5.51c-9.5,14.07 -18.15,28.7 -25.75,43.91l-13.49 -4.56c-0.48,-0.09 -0.95,-0.09 -1.43,-0.28 -1.52,-0.48 -2.95,-1.14 -4.37,-1.81 -1.71,-0.76 -3.33,-1.52 -5.04,-2.28 -0.85,-0.38 -1.61,-0.76 -2.47,-1.14 -0.38,-0.19 -0.85,-0.38 -1.24,-0.57 -1.52,-0.67 -3.14,-1.33 -4.75,-1.9 -3.61,-1.43 -7.13,-2.85 -10.74,-4.28 -2,-0.86 -4.08,-1.62 -5.98,-2.47 0,0 -0.09,-0.09 -0.19,-0.09l-0.09 0c0,-0.09 -0.09,-0.09 -0.19,-0.09 -0.09,-0.09 -0.19,-0.19 -0.28,-0.19 -31.36,20.63 -61.96,42.38 -91.32,65.67 -29.84,23.76 -60.34,48.27 -85.91,76.69 -5.22,5.89 -14.44,2.37 -16.63,-4.37 -15.3,-46.28 -29.65,-93.6 -47.51,-139.12 0.09,4.56 0.09,9.69 0.09,15.58 0.19,32.69 -0.67,73.46 -2.28,114.79 -3.42,82.77 -11.5,204.97 -30.98,317.1 -29.93,172.38 -31.55,365 -31.26,426 52.93,-49.41 127.71,-58.91 199.55,-61.67 91.23,-3.52 182.64,-3.14 273.77,0.85 -23.37,-84.48 -35.82,-172.85 -39.34,-261.22 -3.61,-3.33 -6.56,-7.7 -9.12,-11.02 -4.75,-6.37 -9.59,-12.45 -13.97,-19.01 -9.03,-13.68 -16.06,-28.51 -21.67,-43.81 -2.47,-6.46 8.36,-10.93 11.12,-4.66 6.18,14.26 14.06,27.75 23.09,40.39 3.04,4.37 6.27,8.46 9.69,12.55 -0.57,-30.03 -0.28,-59.96 1.05,-89.7 0.28,-6.75 10.45,-6.75 10.55,0 0.19,35.63 1.52,71.17 4.09,106.62 1.61,2.66 2.47,5.51 1.9,8.83 -0.09,0.67 -0.47,1.33 -0.95,2 1.9,24.23 4.37,48.46 7.79,72.7 8.84,62.05 21.67,123.44 36.3,184.44 0.19,0.95 0.1,1.81 0.1,2.66 2.56,0.19 5.13,0.19 7.79,0.38 0.38,0 0.86,0 1.33,0.09 0.29,-0.19 0.48,-0.29 0.76,-0.38 12.54,-3.52 25.19,-7.03 37.73,-10.55l3.8 13.5c85.62,5.89 170.29,15.87 254.96,30.31 6.93,1.14 5.32,12.92 -1.62,12.26 -100.92,-10.26 -202.59,-18.24 -303.98,-22.71 -89.33,-3.9 -178.65,-4.94 -267.98,-2.28 -74.41,2.28 -159.07,3.7 -216.09,58.72 -59.39,57.3 -65.76,147.29 -64.05,224.74 0.19,11.5 0.47,23 0.76,34.4 0.19,7.8 0.19,15.96 3.42,23.19 10.74,24.23 23.57,-19.1 26.13,-27.28 6.56,-20.43 11.69,-41.24 15.39,-62.33 3.71,-21 4.56,-42.38 9.03,-63.19 1.8,-8.65 13.4,-5.61 14.16,1.9 1.43,12.73 0.67,25.85 -0.95,38.86 2.38,16.73 5.23,33.45 13.4,48.46 7.89,14.63 20.05,25.37 34.97,32.79 15.2,7.5 32.78,10.17 49.7,8.65 9.31,-0.76 18.53,-3.04 27.28,-6.08 6.56,-2.38 12.44,-5.22 18.81,-7.22 -4.37,-1.14 -8.65,-2.38 -12.93,-3.99 -24.7,-9.12 -52.83,-26.8 -64.52,-51.5 -2.66,-5.61 3.8,-10.83 8.55,-6.65 11.12,9.88 20.81,20.24 33.64,27.93 12.07,7.22 24.99,12.64 38.68,15.78 27.37,6.27 55.87,3.61 80.96,-9.31 24.8,-12.93 44.56,-33.64 56.26,-59.01 1.99,-4.37 8.74,-15.58 6.18,-20.62 -3.71,-7.41 -14.63,-3.23 -19.58,-0.38 -14.25,8.26 -25.94,21.09 -39.81,30.03 -0.76,0.47 -1.52,0.67 -2.19,0.86 -1.81,3.32 -3.61,6.74 -5.7,9.98 -1.33,2.19 -2.66,4.46 -4.37,6.37 -2,2.28 -4.09,2.85 -6.65,4.28 -4.94,2.76 -11.5,-1.8 -9.79,-7.51 0.76,-2.66 0.76,-4.85 2.28,-7.31 1.14,-1.81 2.66,-3.52 3.8,-5.42 2.66,-3.8 4.94,-7.89 7.13,-11.97 3.89,-7.7 7.03,-15.78 9.41,-24.04 2.38,-8.65 3.8,-17.39 4.28,-26.32 0.47,-8.83 -1.43,-18.24 0.19,-26.89 0.85,-4.66 7.5,-4.94 9.69,-1.24 4.94,8.17 4.94,20.43 4.85,29.74 -0.09,9.7 -1.33,19.48 -3.42,28.98 -0.48,2.38 -1.33,4.56 -2,6.84 18.81,-18.53 46.18,-39.24 65.38,-18.06 10.55,11.5 5.61,29.36 -2.76,45.14 0.85,0.09 1.8,0.38 2.76,0.86l-8.55 9.22c-4.18,6.46 -8.56,12.26 -11.88,16.44 -17.39,21.57 -41.33,38.01 -67.85,46.28 -18.44,5.8 -38.11,7.13 -57.2,4.46 0.47,1.8 0,3.99 -1.52,5.89 -12.73,16.35 -39.62,21.67 -59.39,23.28 -19.96,1.71 -40,-2.09 -57.78,-11.31 -24.7,-12.74 -39.63,-34.97 -47.04,-60.15 -0.19,0.95 -0.38,2 -0.67,3.04 -5.41,25.19 -12.26,51.13 -22.71,74.79 -6.18,14.06 -20.24,28.04 -36.68,19.67 -0.38,-0.19 -0.67,-0.47 -1.04,-0.67l12.45 28.7 606.93 0 0 62.72c57.49,0.09 115.08,0.19 172.57,0.38 27.56,0.09 55.02,0.09 82.57,0.19 32.69,0.1 65.38,0.38 98.07,1.24 62.72,1.62 125.72,1.14 188.15,7.22zm-546.69 -1763.39l0 0c14.73,-36.96 23.19,-88.19 -4.84,-120.69 -29.94,-34.78 -78.3,-38.77 -119.17,-22.24 -42.76,17.49 -72.98,54.45 -96.17,93.03 -3.9,6.46 -13.78,0.67 -10.07,-5.89 18.06,-31.55 41.15,-61.76 70.41,-83.24 -0.57,0 -1.14,0 -1.71,-0.09 -11.78,-2.38 -20.91,-14.26 -27.65,-23.47 -7.98,-11.02 -13.88,-23.47 -18.63,-36.21 -10.35,-28.13 -12.35,-58.34 -11.4,-88.09 1.62,-50.08 9.98,-102.06 33.54,-146.81 -71.93,38.11 -153.46,65 -234.43,69.46 -78.4,4.37 -163.26,0.28 -236.43,-30.31 -39.34,-16.53 -75.36,-41.72 -104.24,-73.36 -6.75,20.06 -14.63,39.72 -21.28,59.87 -8.56,25.47 -16.16,51.22 -23.09,77.17 -14.63,54.64 -26.61,109.85 -36.02,165.63 -7.98,47.22 -14.06,94.74 -17.58,142.44 -3.52,49.41 -4.08,100.06 7.6,148.52 10.74,44.76 32.4,85.05 66.8,116.03 31.17,28.03 70.04,46.47 110.13,57.68 89.52,24.99 190.72,21 280.04,-2.28 89.23,-23.19 172.94,-74.31 218.28,-156.13 -17.01,0 -34.21,-1.99 -51.22,-6.65 -6.56,-1.81 -5.42,-13.02 1.61,-12.07 49.41,6.46 101.96,-2.19 144.91,-28.03 35.83,-21.57 65.09,-55.4 80.58,-94.26zm-2.66 -414.88l0 0c3.9,-38.77 3.04,-83.91 -22.43,-115.93 -20.05,-25.09 -52.26,-40.58 -83.91,-33.45 -1.43,1.05 -3.23,1.52 -4.94,1.33 -0.48,0.19 -0.95,0.29 -1.33,0.38 -5.7,1.9 -9.5,-5.99 -5.61,-9.6 -22.61,-72.79 -69.46,-142.07 -133.7,-184.16 -32.22,-21.19 -74.5,-36.87 -112.61,-22.52 -32.5,12.16 -60.43,45.8 -52.45,82.01 1.9,8.36 -10.36,14.44 -14.35,6.08 -14.16,-29.17 -33.54,-55.3 -57.39,-77.16 -22.8,-20.91 -52.83,-42.1 -85.14,-32.59 -28.8,8.55 -49.89,34.97 -58.06,63.1 -10.17,34.78 -5.41,71.93 0.19,107.09 1.33,8.93 -11.21,16.25 -15.87,6.65 -16.63,-34.02 -43.71,-60.72 -76.97,-78.68 -16.53,-9.03 -35.82,-15.39 -53.02,-4.37 -12.26,7.8 -20.15,21.29 -24.8,34.69 -20.24,58.44 8.46,127.33 44.95,173.04 42.85,53.88 103.3,87.52 170.19,101.68 34.87,7.32 70.51,10.17 106.05,11.12 35.06,0.86 70.22,0.76 105,-4.18 72.6,-10.26 141.97,-34.5 207.16,-67.75 8.36,-4.37 15.68,7.98 7.41,12.73 -0.29,0.19 -0.67,0.38 -0.95,0.57 -27.84,45.61 -32.69,101.11 -33.64,153.37 -0.47,28.03 2.09,56.54 11.12,83.15 4.08,11.78 9.59,22.71 16.25,33.16 5.8,9.13 14.92,17.39 18.15,27.85 0.38,1.33 0.38,2.56 0,3.7 14.25,-9.5 29.93,-17.01 47.13,-21.67 10.46,-2.76 21.29,-4.18 31.93,-4.28 5.22,-19.67 16.25,-38.87 23.76,-57.68 7.98,-20.05 15.01,-40.48 21.28,-61.1 12.45,-41.15 22.33,-83.72 26.61,-126.57zm-20.52 2169.15l0 0 0 -34.11 -565.97 0 14.54 33.64c127.91,0 255.81,0 383.72,0.09 55.97,0.09 111.85,0.28 167.72,0.38zm-247.07 -1302.33l0 0c-14.73,-28.98 -29.36,-57.96 -39.72,-88.85 -30.03,11.21 -59.11,25.84 -88.28,39.06 -30.22,13.59 -60.15,27.74 -90.18,41.81 10.46,22.33 21.1,44.38 29.94,67.56 9.12,23.85 17.58,48.08 24.61,72.6 25.37,-23 49.99,-46.75 76.69,-68.42 27.84,-22.71 56.92,-44 86.95,-63.76zm-73.55 -94.46l0 0c-1.61,-3.61 -2.09,-8.36 -2.94,-11.69 -1.24,-4.75 -2.38,-9.59 -3.71,-14.44 -1.9,-7.22 -4.18,-14.35 -6.46,-21.38 -21.28,7.13 -43.04,12.83 -64.9,16.91 -75.83,14.35 -157.36,17.39 -233.57,0.09 -0.57,3.04 -0.85,6.08 -1.33,9.13 -0.76,6.08 -1.61,12.07 -2.28,18.15 -0.76,6.08 -1.52,12.16 -2.28,18.24 -0.76,5.61 -1.24,11.12 -2.66,16.53 21.67,1.71 43.33,4.47 64.71,7.7 18.06,2.66 36.11,6.08 53.98,9.98 8.55,1.8 17.1,3.8 25.56,5.99 6.84,1.8 15.87,2.85 21.28,7.98 1.33,1.24 2.28,2.47 2.94,3.8 30.03,-13.02 60.06,-26.04 89.89,-39.44 20.43,-9.22 41.34,-17.96 61.77,-27.56zm-170.09 81.82l0 0c2.76,-6.08 2.85,-4.18 -2.19,-6.18 -15.01,-5.89 -33.07,-8.17 -48.84,-11.5 -15.68,-3.23 -31.55,-5.99 -47.42,-8.65 -29.27,-4.85 -58.82,-7.7 -87.9,-12.92 -9.41,17.77 -19.39,35.25 -29.65,52.55 -5.13,8.65 -10.35,17.2 -15.39,25.85 -2.37,3.99 -4.75,7.98 -7.03,11.97 -0.48,0.95 -4.09,6.46 -6.17,9.79 13.11,8.08 28.6,14.16 41.9,21.19 17.96,9.41 35.92,18.91 53.69,28.6 31.93,17.3 63.09,35.83 95.21,52.83 4.66,-29.08 11.5,-57.68 21.19,-85.62 5.42,-15.68 11.31,-31.26 17.96,-46.47 3.13,-7.31 6.37,-14.54 9.88,-21.76 1.52,-3.23 3.23,-6.46 4.75,-9.69zm-91.8 1314.4l0 0 -258.85 -596.76c-10.07,-23.09 -32.78,-38.1 -58.06,-38.1l-12.07 0 275.29 634.77c17.96,0.1 35.83,0.1 53.69,0.1zm-84.76 -0.1l0 0 -275.29 -634.77 -1064.29 0c-7.04,0 -13.3,3.42 -17.11,9.31 -3.9,5.89 -4.56,12.93 -1.71,19.48l262.17 604.46c288.59,-0.29 577.19,0.09 865.78,1.14 76.78,0.28 153.66,0.28 230.44,0.38zm-129.05 -2100.92l0 0c11.98,-39.63 23.85,-81.81 42.1,-119.64 -57.68,6.27 -87.04,65.09 -91.8,118.5 -2.94,33.07 -0.47,66.33 1.52,99.3 1.43,23.85 4.09,47.89 7.89,71.74 0.86,-5.04 1.71,-9.98 2.66,-15.01 9.98,-52.07 22.33,-104.06 37.63,-154.89zm31.07 862.36l0 0c-33.92,-42 -68.04,-83.81 -101.3,-126.29 -18.15,-23.28 -36.78,-46.18 -55.31,-69.08 -9.31,-11.5 -18.44,-23.09 -27.65,-34.59 -4.65,-5.8 -9.98,-11.69 -14.82,-17.87 -66.42,80.11 -140.07,154.89 -220.65,220.37 6.56,6.17 11.97,14.06 17.58,20.52 8.74,10.07 17.29,20.33 25.84,30.6 16.54,19.95 32.97,40 49.32,60.15 16.92,20.72 33.83,41.43 50.56,62.24 8.36,10.45 16.72,20.91 25.09,31.35 5.51,6.94 12.92,14.26 16.91,22.62 73.84,-71.46 153.09,-137.5 234.43,-200.03zm-90.18 -557.7l0 0c2.95,-32.88 7.32,-65.66 12.55,-98.26 -11.12,-22.04 -24.23,-57.01 -53.88,-41.24 -23.09,12.35 -28.22,47.22 -28.31,70.89 -0.19,24.9 5.89,49.8 18.06,71.65 5.89,10.55 12.92,20.43 21.38,29.08 5.99,6.18 16.92,18.15 26.8,20.43 0.57,-17.58 1.81,-35.06 3.42,-52.55zm-47.8 196.98l0 0c-15.49,-13.11 -31.36,-25.75 -47.7,-37.72 -4.09,-2.94 -9.22,-8.17 -13.97,-9.88 -6.18,-2.19 -8.07,1.71 -11.97,5.32 -9.22,8.55 -18.34,17.2 -27.56,25.75 -33.45,31.17 -66.8,62.24 -100.25,93.31 -66.61,62.05 -132.56,125.72 -202.02,184.63 17.2,33.54 37.24,64.14 66.32,88.94 63.29,-50.65 124.3,-103.48 180.83,-161.83 29.84,-30.88 58.35,-62.81 85.62,-95.88 0.48,-1.33 1.33,-2.47 2.47,-3.13 23.76,-28.98 46.47,-58.92 68.23,-89.52zm-109 572.91l0 0c-9.22,-6.27 -16.15,-17.87 -23,-26.23 -8.46,-10.36 -16.91,-20.62 -25.37,-30.98 -16.35,-20.15 -32.59,-40.39 -48.84,-60.63 -16.72,-20.91 -33.45,-41.81 -49.98,-62.81 -7.79,-9.88 -15.39,-19.77 -23,-29.84 -4.75,-6.27 -10.55,-12.54 -14.83,-19.39 -12.54,9.98 -25.28,19.77 -38.2,29.37 -3.8,2.75 -9.22,1.04 -12.35,-1.62 -22.24,-18.72 -43.05,-41.24 -58.44,-66.61 7.69,48.94 15.29,97.97 23.75,146.81 10.64,61.39 22.24,122.58 36.68,183.11 7.04,29.46 14.64,58.82 23.09,87.99 6.75,23 15.77,46.09 22.24,69.37 0.76,-0.95 1.33,-1.9 2.09,-2.95 55.4,-77.54 118.4,-148.91 186.15,-215.61zm-597.42 -1416.74l0 0c17.48,-29.08 22.8,-62.62 21.28,-96.26 -2.47,-55.87 -32.21,-130.28 -92.65,-141.11 -0.95,2.47 -1.9,5.04 -2.85,7.51 0.76,4.94 1.52,9.98 2.28,14.92 7.89,52.83 15.3,106.05 18.81,159.36 2.47,36.59 1.9,74.31 -5.04,110.61 23.94,-12.55 44.19,-31.84 58.16,-55.02zm-27.94 -751.28l0 0c7.13,-27.75 7.8,-55.59 -0.76,-83.06 -7.7,-24.8 -21.67,-47.42 -38.11,-67.28 -28.79,-34.87 -65.76,-62.62 -106.33,-82.29 -86.85,-42.29 -188.63,-45.14 -280.8,-20.15 -100.73,27.27 -196.8,85.33 -272.82,156.5 -73.74,69.08 -110.99,172.47 -95.22,272.82 0.67,3.99 -1.24,7.13 -3.89,9.02 0,0.09 0,0.19 -0.1,0.19 -0.28,4.75 -6.08,9.12 -10.36,5.89 -13.3,-9.98 -26.22,-16.44 -43.14,-16.53 -16.35,-0.1 -32.69,4.84 -46.19,13.96 -60.63,40.86 -45.33,134.65 -28.13,193.28 21.19,72.22 58.54,138.07 95.41,203.07 0.28,0.57 0.38,1.14 0.48,1.71 25.08,7.8 47.22,23.19 66.42,41.63 3.9,-30.41 9.79,-60.54 13.21,-91.04 3.89,-34.4 7.31,-68.99 8.46,-103.68 1.24,-34.49 0.19,-69.27 -4.47,-103.57 -4.18,-30.7 -13.4,-60.63 -17.86,-91.13 -4.37,-2.56 -6.08,-9.02 -0.38,-12.26 39.15,-22.24 82.3,-35.92 126.67,-43.05 79.06,-12.64 159.55,-4.66 237.28,12.35 73.64,16.06 154.61,43.33 228.72,18.63 -16.82,-6.46 -33.73,-12.83 -50.55,-19.39 -8.93,-3.52 -8.37,-17.96 2.37,-17.68 102.91,2.28 195.37,-81.06 220.08,-177.98zm-6.75 303.42l0 0c4.19,-35.73 2.19,-72.89 -17.67,-103.96 -7.98,-12.45 -18.53,-23.38 -31.17,-30.89 -5.7,-3.42 -11.69,-6.27 -18.06,-8.08 -5.23,-1.52 -10.36,-2.09 -15.3,-3.8 -11.11,7.22 -22.81,13.49 -34.78,18.81 32.5,103.01 55.5,209.53 72.79,316.24 1.43,-4.46 2.76,-8.93 3.99,-13.4 5.42,-19.19 10.26,-38.58 15.2,-57.87 9.89,-38.3 20.34,-77.73 24.99,-117.07zm-44.66 484.82l0 0c6.65,-49.04 1.99,-99.31 -3.24,-148.24 -5.7,-52.07 -12.73,-103.96 -21.38,-155.65 -16.92,-101.68 -40.57,-201.55 -68.61,-300.66 -11.59,3.89 -23.37,6.94 -35.54,8.93 11.88,4.56 23.76,9.12 35.73,13.49 6.94,2.47 9.78,12.92 2.19,16.82 -39.63,20.43 -85.24,26.04 -129.24,22.14 -42.76,-3.71 -84.76,-15.02 -126.29,-25.56 -39.53,-10.07 -79.91,-17.11 -120.68,-19.86 -78.68,-5.41 -157.65,5.61 -230.34,36.59 15.39,27.08 21.28,61.2 25.09,91.22 4.47,34.59 5.23,69.65 3.7,104.53 -1.52,34.78 -5.22,69.56 -10.93,104.06 -5.8,35.44 -10.74,71.56 -19.29,106.52 7.22,7.98 14.06,16.35 20.33,24.8 3.7,5.04 -4.75,11.41 -8.74,6.65 -31.17,-36.96 -71.37,-73.55 -122.11,-76.87 -45.42,-3.04 -84.29,20.81 -95.98,65.85 -12.64,48.65 1.14,99.02 26.7,140.92 24.14,39.81 63,67.37 109.57,73.83 21.95,3.04 44.38,0.48 65.28,-6.65 10.55,-3.52 20.43,-8.46 29.93,-14.16 9.31,-5.61 19.48,-9.03 28.6,-14.92 5.61,-3.61 13.87,3.89 9.5,9.5 -9.31,12.26 -16.82,22.23 -30.41,29.93 -1.33,0.76 -2.76,1.43 -4.09,2.09 1.81,-0.19 3.61,0.29 4.94,2 60.15,77.07 145.48,129.9 241.27,149.29 89.23,18.15 184.54,4.09 264.84,-38.96 81.24,-43.52 146.24,-113.75 159.17,-207.63zm-105.57 2404.63l0 0 -173.43 -399.87c-15.96,4.94 -32.97,6.27 -49.89,8.46 -22.71,2.94 -45.42,5.13 -68.22,7.13 -47.23,3.89 -94.46,5.41 -141.78,4.75 -47.23,-0.57 -94.55,-3.23 -141.49,-8.74 -22.24,-2.57 -44.57,-5.7 -66.71,-9.13 -8.65,-1.33 -17.3,-2.94 -25.94,-4.65 -0.09,3.89 -1.33,7.89 -2.19,12.26 -1.71,9.22 -2.94,18.63 -4.37,27.94 -2.76,17.68 -4.66,35.35 -5.8,53.22 -2.19,34.78 -1.33,69.84 2.56,104.53 7.79,70.7 28.89,141.78 62.91,204.3 0.38,0.67 0.57,1.24 0.76,1.9 14.25,-0.09 28.6,-0.09 42.86,-0.19 190.24,-1.14 380.48,-1.61 570.72,-1.9zm6.65 -2013.79l0 0c-4.46,-19.48 -10.36,-38.58 -18.06,-57.02 -87.71,5.7 -175.32,12.35 -263.03,19.29 -0.47,13.3 -0.95,26.61 -0.95,40 -0.09,11.88 0.09,23.85 0.48,35.73 0.19,5.51 0.76,11.98 -0.57,17.58 24.33,36.2 49.51,71.65 74.5,107.28 30.22,-31.83 64.62,-59.96 99.11,-86.95 34.59,-27.27 70.7,-53.12 108.52,-75.93zm-102.63 -71.27l0 0c-2.37,-4.85 -2.37,-11.12 -2.85,-16.25 -0.67,-6.94 -0.76,-13.87 -0.67,-20.71 0.1,-6.56 -0.28,-13.11 -0.38,-19.67 -0.09,-2.85 -0.09,-5.61 -0.09,-8.46 -82.48,29.27 -175.32,32.59 -258.76,5.8 -65.85,-21.19 -126.1,-59.2 -173.9,-109.19 9.5,18.72 18.25,37.82 26.51,56.54 8.56,19.29 16.63,38.77 24.14,58.44 4.09,10.83 7.89,21.67 11.78,32.5 2.56,7.22 6.18,14.44 6.74,21.95 58.92,4.75 117.83,9.41 176.84,13.78 0.48,0.09 0.86,0.28 1.33,0.38 0.48,-0.09 0.86,-0.28 1.33,-0.38 62.72,-4.66 125.34,-9.6 187.96,-14.73zm-199.65 109.28l0 0c0.47,-11.87 0.57,-23.85 0.47,-35.73 0,-13.4 -0.47,-26.7 -0.95,-40 -87.71,-6.94 -175.32,-13.59 -263.03,-19.29 -7.7,18.43 -13.68,37.54 -18.06,57.02 37.82,22.81 73.93,48.65 108.52,75.93 34.5,26.99 68.89,55.11 99.11,86.95 24.99,-35.63 50.17,-71.08 74.5,-107.19 -1.33,-5.7 -0.76,-12.17 -0.57,-17.68z"/>
      <path class="fil4" d="M5324.16 4831.74c22.52,77.54 20.05,167.82 -27.27,236.04 -46.47,67 -126.67,99.49 -205.83,105 -8.93,0.67 -17.87,0.95 -26.8,0.95 -39.34,0 -78.2,-5.8 -116.78,-13.59 -46.37,-9.41 -93.41,-19.38 -137.88,-35.82 -1.24,-0.38 -2.38,-0.76 -3.61,-1.24 -44.19,-16.63 -83.15,-42.09 -123.15,-66.61 -42.67,-26.13 -85.24,-52.36 -127.33,-79.35 -0.85,-0.57 -1.52,-1.33 -1.99,-1.99l8.55 -9.22c46.37,25.84 91.98,53.12 137.98,79.53 43.62,25.09 86.47,50.08 134.84,65 43.14,13.3 88.28,23.37 133.04,29.46 45.14,6.08 90.85,10.26 136.27,5.13 73.46,-8.36 146.72,-44.28 181.98,-111.85 37.06,-70.8 28.5,-155.37 1.23,-227.87 -14.82,-39.34 -35.54,-76.3 -57.87,-111.84 -24.13,-38.58 -50.27,-75.93 -78.49,-111.66 -2.47,-3.23 -3.33,-6.84 -2.85,-10.17 -103.96,76.69 -234.05,115.36 -359.77,144.54l-3.8 -13.5c75.64,-21.19 151.28,-42.57 222.83,-75.55 70.98,-32.78 137.22,-75.45 190.62,-132.94 -0.48,-0.95 -0.85,-2 -1.33,-2.95 -4.85,-10.64 -9.79,-21.1 -14.92,-31.55 -36.02,-72.98 -78.4,-143.11 -126.48,-208.77 -63,-86 -137.41,-164.59 -226.64,-223.6 -2.85,10.46 -6.17,20.53 -9.88,30.03 -9.41,24.61 -29.65,77.82 -65.28,67.09 -37.54,-11.31 -27.37,-67.56 -23.09,-96.17 -0.19,0.28 -0.38,0.57 -0.57,0.95 -14.06,23.38 -46.56,76.4 -80.58,55.78 -15.87,-9.6 -18.91,-29.08 -16.44,-45.9 0.57,-4.56 1.52,-9.12 2.47,-13.69 -16.72,24.14 -41.81,51.51 -67.85,35.73 -15.78,-9.6 -18.81,-29.17 -16.44,-45.99 2.95,-20.33 9.22,-40.48 16.54,-59.68 5.23,-13.49 11.21,-26.8 18.06,-39.53l13.49 4.56c-4.47,9.03 -8.65,18.34 -12.35,27.94 -5.32,13.78 -9.88,27.94 -13.49,42.29 -3.52,14.16 -9.6,32.31 -4.09,46.56 14.16,36.3 53.22,-23.09 61.39,-36.39 15.68,-25.47 26.89,-53.41 33.07,-82.67 2.94,-14.16 6.18,-31.17 -1.81,-44.28 -6.17,-10.17 -24.04,-17.39 -29.07,-2.09 -1.33,4.08 -4.75,5.32 -7.89,4.75l-10.64 -5.51c2.19,-2.94 4.46,-5.8 6.74,-8.65 5.8,-12.83 21.86,-19.29 35.45,-15.49 19.48,5.42 28.6,25.94 28.89,44.66 0.09,6.94 -0.67,13.87 -1.81,20.81 5.99,-9.03 12.35,-17.67 19.2,-26.13 5.8,-12.73 21.85,-19.29 35.44,-15.49 19.48,5.42 28.6,26.04 28.89,44.76 0,0.76 -0.09,1.52 -0.09,2.28 4.09,-13.87 18.81,-23.28 33.64,-20.91 19.39,3.23 31.46,20.91 34.88,39.15 3.7,20.43 2.85,42.38 -0.76,64.05 54.83,33.73 104.34,76.3 148.72,122.87 70.13,73.55 129.14,157.65 179.03,245.93 22.81,40.39 44.56,81.72 62.24,124.67 1.71,4.09 -0.47,9.03 -3.23,12.07 -17.87,19.67 -37.16,37.25 -57.59,53.5 2.09,0.67 3.99,1.9 5.7,4.09 63.29,80.01 125.81,169.43 154.61,268.44zm-507.06 -838.7l0 0c2.19,-17.48 4.37,-38.01 -0.38,-55.3 -2.37,-8.84 -7.41,-18.06 -16.16,-21.95 -9.59,-4.28 -19.38,0.67 -20.91,11.12 -0.57,3.8 -3.61,5.23 -6.74,5.04 -13.21,31.36 -22.62,64.05 -26.89,98.07 -2.28,18.34 -4.85,38.96 -1.8,57.3 1.33,7.51 4.56,16.44 11.88,20.05 8.74,4.37 16.82,-1.9 22.23,-8.46 11.59,-13.78 19.1,-32.88 25.19,-49.6 6.56,-18.15 11.21,-37.06 13.59,-56.26zm-71.75 -50.93l0 0c3.04,-14.16 6.18,-31.07 -1.8,-44.28 -6.18,-10.07 -24.04,-17.39 -29.08,-2.09 -1.33,4.09 -4.75,5.42 -7.89,4.85 -15.11,22.52 -28.22,46.37 -38.11,71.84 -5.32,13.78 -9.79,27.85 -13.4,42.19 -3.61,14.16 -9.69,32.4 -4.18,46.66 14.16,36.2 53.21,-23.09 61.39,-36.39 15.68,-25.47 26.98,-53.5 33.07,-82.77z"/>
      <path class="fil5" d="M5229.51 4693.48c-24.13,-38.58 -50.27,-75.93 -78.49,-111.66 -2.47,-3.23 -3.33,-6.84 -2.85,-10.17 -103.96,76.69 -234.05,115.36 -359.77,144.54 57.59,3.96 114.73,9.94 171.75,17.72 92.73,-7 185.37,-14.8 277.48,-27.31 -2.68,-4.39 -5.39,-8.77 -8.12,-13.12z"/>
      <path class="fil6" d="M5286.19 5033.23c-35.35,67.56 -108.61,103.48 -182.07,111.84 -6.84,0.76 -13.78,1.33 -20.72,1.71 0,-0.09 -0.09,-0.09 -0.19,0 -38.39,2.09 -77.07,-1.71 -115.27,-6.84 -44.76,-6.08 -89.89,-16.15 -133.04,-29.46 -48.37,-14.92 -91.32,-39.91 -134.84,-65 -46.09,-26.41 -91.61,-53.69 -137.98,-79.54 -1.04,-0.48 -2,-0.76 -2.76,-0.85 8.27,-15.78 13.21,-33.64 2.76,-45.14 -19.29,-21.19 -46.66,-0.48 -65.38,18.06 0.67,-2.28 1.43,-4.46 2,-6.84 2,-9.5 3.23,-19.29 3.42,-28.98 0,-3.52 0.09,-7.41 -0.28,-11.4 -0.29,-6.56 -1.52,-13.21 -4.66,-18.34 -2.09,-3.71 -8.74,-3.42 -9.69,1.24 -1.62,8.65 0.38,18.05 -0.1,26.89 -0.57,8.93 -1.9,17.67 -4.27,26.32 -2.38,8.26 -5.61,16.34 -9.41,24.04 -2.28,4.09 -4.56,8.17 -7.13,11.97 -1.14,1.9 -2.76,3.61 -3.9,5.42 -1.43,2.47 -1.43,4.66 -2.19,7.32 -1.71,5.7 4.85,10.26 9.69,7.51 2.57,-1.43 4.75,-2 6.65,-4.28 1.71,-1.9 3.04,-4.18 4.46,-6.37 2,-3.23 3.8,-6.65 5.61,-9.98 0.67,-0.19 1.52,-0.38 2.28,-0.85 13.78,-8.93 25.56,-21.76 39.81,-30.03 0.57,-0.38 1.24,-0.67 1.9,-1.05 5.42,-2.57 14.35,-5.13 17.67,1.43 1.24,2.47 0.29,6.37 -1.33,10.17 -1.52,4.18 -3.8,8.17 -4.85,10.45 -11.69,25.37 -31.45,46.09 -56.25,59.01 -25.09,12.92 -53.59,15.58 -81.06,9.31 -13.68,-3.13 -26.51,-8.55 -38.67,-15.78 -12.73,-7.69 -22.52,-18.06 -33.54,-27.94 -4.75,-4.18 -11.22,1.04 -8.65,6.65 11.78,24.7 39.81,42.38 64.62,51.5 4.18,1.61 8.46,2.85 12.92,3.99 -6.36,2 -12.35,4.85 -18.91,7.22 -8.74,3.04 -17.86,5.32 -27.27,6.08 -16.82,1.52 -34.5,-1.14 -49.7,-8.65 -14.92,-7.41 -26.99,-18.15 -34.87,-32.78 -8.17,-15.01 -11.02,-31.74 -13.4,-48.46 1.61,-13.02 2.37,-26.13 0.95,-38.86 -0.86,-7.51 -12.35,-10.55 -14.16,-1.9 -4.56,20.81 -5.32,42.19 -9.02,63.19 -3.8,21.09 -8.84,41.91 -15.4,62.33 -2.66,8.17 -15.39,51.5 -26.13,27.28 -3.33,-7.22 -3.33,-15.39 -3.42,-23.19 -0.38,-11.4 -0.57,-22.9 -0.76,-34.4 -1.71,-77.44 4.56,-167.43 63.95,-224.74 57.02,-55.02 141.78,-56.44 216.09,-58.72 89.42,-2.66 178.65,-1.62 267.97,2.28 101.39,4.47 203.07,12.45 303.99,22.71 7.03,0.67 8.65,-11.12 1.61,-12.26 -27.65,-4.75 -55.4,-8.84 -83.15,-12.64 92.75,-7.03 185.39,-14.82 277.48,-27.27 19.2,31.45 36.78,64.15 49.79,98.73 27.28,72.5 35.73,157.08 -1.24,227.87z"/>
      <path class="fil5" d="M5083.22 5146.78c-38.39,2.09 -77.07,-1.71 -115.27,-6.84 -44.76,-6.08 -89.89,-16.15 -133.04,-29.46 -48.37,-14.92 -91.32,-39.91 -134.84,-65 -46.09,-26.41 -91.61,-53.69 -137.98,-79.54 -1.04,-0.48 -2,-0.76 -2.76,-0.85 8.27,-15.78 13.21,-33.64 2.76,-45.14 -19.29,-21.19 -46.66,-0.48 -65.38,18.06 0.67,-2.28 1.43,-4.46 2,-6.84 2,-9.5 3.23,-19.29 3.42,-28.98 0,-3.52 0.09,-7.41 -0.28,-11.4 103.39,33.83 203.73,76.69 299.8,127.62 90.94,48.37 183.11,105.57 281.56,128.38z"/>
      <path class="fil1" d="M5196.78 4491.3c-4.94,-10.64 -9.88,-21.1 -15.02,-31.55 -35.92,-72.98 -78.39,-143.11 -126.38,-208.78 -63.1,-86 -137.41,-164.58 -226.73,-223.59 -0.86,3.14 -1.71,6.27 -2.66,9.31 -2.19,7.13 -4.56,14.06 -7.22,20.71 -9.31,24.61 -29.65,77.83 -65.28,67.09 -37.54,-11.31 -27.27,-67.57 -23.09,-96.17 -0.19,0.29 -0.38,0.57 -0.57,0.95 -14.06,23.38 -46.56,76.4 -80.58,55.78 -15.78,-9.6 -18.82,-29.08 -16.35,-45.9 0.57,-4.56 1.52,-9.12 2.47,-13.69 -16.72,24.14 -41.91,51.51 -67.85,35.73 -15.78,-9.6 -18.81,-29.17 -16.54,-46 2.94,-20.33 9.22,-40.48 16.54,-59.67 5.22,-13.5 11.21,-26.8 18.05,-39.53 -0.38,-0.09 -0.94,-0.09 -1.33,-0.29 -1.52,-0.47 -3.04,-1.14 -4.37,-1.8 -1.71,-0.76 -3.42,-1.52 -5.13,-2.28 -0.76,-0.38 -1.52,-0.76 -2.47,-1.14 -0.38,-0.19 -0.76,-0.38 -1.14,-0.57 -1.52,-0.67 -3.23,-1.33 -4.75,-1.9 -3.61,-1.43 -7.22,-2.85 -10.83,-4.28 -1.9,-0.85 -4.09,-1.61 -5.89,-2.47l-0.19 -0.09 -0.19 0c0,-0.09 -0.09,-0.09 -0.19,-0.09 -0.09,-0.1 -0.19,-0.19 -0.19,-0.19 -31.45,20.62 -61.96,42.38 -91.41,65.67 -29.84,23.76 -60.34,48.27 -85.81,76.69 -5.22,5.89 -14.54,2.37 -16.63,-4.37 -15.39,-46.28 -29.65,-93.6 -47.52,-139.11l0 15.58c0.19,32.69 -0.67,73.46 -2.28,114.79 -3.42,82.77 -11.4,204.97 -30.98,317.1 -29.84,172.38 -31.55,365 -31.17,426 52.84,-49.41 127.72,-58.92 199.56,-61.67 10.74,-0.38 21.38,-0.76 32.12,-1.05 80.48,-2.37 161.07,-1.61 241.56,1.9 -22.33,-80.87 -34.78,-165.34 -38.87,-249.91 -0.19,-3.71 -0.29,-7.51 -0.48,-11.31 -0.67,-0.67 -1.33,-1.33 -1.9,-2 -1.52,-1.61 -2.94,-3.33 -4.18,-5.04 -1.04,-1.43 -2.09,-2.76 -3.04,-3.99 -4.75,-6.37 -9.6,-12.45 -13.87,-19 -9.12,-13.69 -16.15,-28.51 -21.76,-43.81 -2.47,-6.46 8.46,-10.93 11.12,-4.66 6.27,14.26 14.06,27.75 23.19,40.39 2.95,4.37 6.18,8.46 9.69,12.55 -0.57,-30.03 -0.38,-59.96 0.95,-89.7 0.29,-6.75 10.46,-6.75 10.55,0 0.29,35.63 1.52,71.17 4.09,106.62 1.71,2.66 2.47,5.51 1.9,8.83 0,0.67 -0.48,1.33 -0.95,2 2,24.23 4.37,48.46 7.79,72.69 8.93,62.06 21.67,123.44 36.3,184.45 0.19,0.95 0.19,1.8 0.19,2.66 2.47,0.19 5.13,0.19 7.7,0.39 0.47,0 0.85,0 1.43,0.09 0.19,-0.19 0.38,-0.28 0.76,-0.38 12.54,-3.52 25.08,-7.03 37.63,-10.55 75.64,-21.19 151.28,-42.57 222.93,-75.55 44.66,-20.62 87.52,-45.23 126.48,-75.07 22.81,-17.39 44.29,-36.68 64.15,-57.87 -0.57,-0.95 -0.95,-2 -1.33,-2.94zm-590.11 169.33l0 0c-3.7,16.15 -18.24,17.3 -32.31,18.34 -21.57,1.71 -43.24,2.76 -64.72,3.71l-0.28 0c-41.81,1.8 -84,3.23 -125.72,1.8 -4.84,-0.19 -8.07,-3.8 -8.46,-8.46 -6.84,-87.9 -6.84,-176.18 -7.98,-264.27 0,-4.85 3.99,-8.07 8.36,-8.36 20.53,-1.43 41.05,-2.09 61.58,-2.95 0.19,-1.33 0.28,-2.76 0.28,-4.18 0.48,-7.98 0.48,-15.96 0.28,-23.85 -0.28,-7.89 -1.33,-15.87 -1.14,-23.76 0,-2.38 1.14,-4.09 2.85,-4.94 1.24,-2.28 3.51,-4.18 6.84,-4.27 15.68,-0.57 31.36,-0.29 47.13,-0.86 6.27,-0.19 15.02,-2.09 20.05,2.85 4.85,4.65 4.28,13.4 5.04,19.48 1.52,15.11 1.9,30.31 1.33,45.42 10.45,-2.19 20.72,-1.33 31.65,-0.94 13.02,0.47 25.75,0.57 38.77,0.28 5.42,-0.09 9.03,4.37 9.41,9.41 3.04,42.57 3.61,85.43 4.85,128.09 0.38,10.65 0.57,21.29 0.85,32.02 0.29,10.26 0.57,20.62 0.95,30.89 0.57,17.2 4.37,37.54 0.38,54.54z"/>
      <path class="fil2" d="M5198.11 4494.24c-19.86,21.19 -41.34,40.48 -64.15,57.87 -72.41,-190.33 -155.37,-384.85 -307.98,-515.42 0.95,-3.04 1.8,-6.18 2.66,-9.31 89.32,59.01 163.63,137.6 226.73,223.59 47.99,65.67 90.46,135.79 126.38,208.78 5.13,10.45 10.07,20.91 15.02,31.55 0.38,0.95 0.76,2 1.33,2.94z"/>
      <path class="fil7" d="M4716.33 4712.42c-80.49,-3.51 -161.07,-4.27 -241.56,-1.9 12.07,-8.84 23.66,-18.06 34.87,-27.84 36.4,-31.46 68.61,-67.76 95.69,-107.48 27.65,-40.48 49.89,-84.57 65.57,-131.04 0.76,-2 1.43,-4.09 2.09,-6.08l2.09 11.12 2.38 13.31c4.09,84.57 16.53,169.05 38.87,249.91z"/>
      <path class="fil6" d="M4816.72 3937.74c4.75,17.3 2.57,37.82 0.38,55.3 -2.38,19.2 -7.04,38.11 -13.59,56.26 -6.08,16.72 -13.59,35.82 -25.19,49.6 -5.41,6.56 -13.49,12.83 -22.23,8.46 -7.32,-3.61 -10.55,-12.54 -11.88,-20.05 -3.04,-18.34 -0.48,-38.96 1.8,-57.3 4.28,-34.02 13.69,-66.71 26.89,-98.07 3.14,0.19 6.18,-1.24 6.74,-5.04 1.52,-10.45 11.31,-15.39 20.91,-11.12 8.74,3.89 13.78,13.11 16.16,21.95z"/>
      <path class="fil7" d="M4809.59 5124.32l-0.48 1.23 -606.93 0 -12.45 -28.7c0.38,0.19 0.67,0.48 1.04,0.67 16.44,8.37 30.5,-5.61 36.68,-19.67 10.45,-23.66 17.3,-49.6 22.71,-74.79 0.29,-1.04 0.48,-2.09 0.67,-3.04 7.41,25.18 22.33,47.42 47.04,60.15 17.77,9.22 37.82,13.02 57.78,11.31 19.77,-1.62 46.66,-6.94 59.39,-23.28 1.52,-1.9 2,-4.09 1.52,-5.89 19.1,2.66 38.77,1.33 57.2,-4.46 26.51,-8.27 50.46,-24.71 67.85,-46.28 3.33,-4.18 7.7,-9.98 11.88,-16.44 0.48,0.66 1.14,1.43 1.99,1.99 42.1,26.99 84.67,53.22 127.33,79.35 40.01,24.52 78.97,49.98 123.15,66.61 1.24,0.47 2.38,0.86 3.61,1.24z"/>
      <path class="fil6" d="M4799 3313.26c-30.02,-34.78 -78.3,-38.77 -119.26,-22.24 -42.76,17.48 -72.88,54.45 -96.07,93.03 -3.99,6.46 -13.87,0.67 -10.07,-5.89 18.06,-31.55 41.05,-61.77 70.32,-83.24 -0.57,0 -1.14,0 -1.71,-0.09 -11.78,-2.38 -20.91,-14.25 -27.56,-23.47 -7.98,-11.02 -13.87,-23.47 -18.62,-36.2 -10.46,-28.13 -12.35,-58.35 -11.4,-88.09 1.52,-50.07 9.88,-102.06 33.44,-146.81 -71.84,38.11 -153.37,65 -234.43,69.46 -78.39,4.37 -163.25,0.29 -236.33,-30.31 -39.34,-16.54 -75.45,-41.72 -104.34,-73.36 -6.65,20.05 -14.63,39.72 -21.29,59.87 -8.55,25.47 -16.15,51.22 -23,77.17 -14.63,54.64 -26.61,109.85 -36.11,165.63 -1.52,9.22 -3.04,18.44 -4.46,27.65 -5.51,36.2 -9.79,72.51 -12.54,109 -0.19,1.9 -0.38,3.9 -0.48,5.8 -3.61,49.41 -4.18,100.06 7.6,148.52 10.65,44.76 32.31,85.05 66.71,116.03 31.17,28.03 70.13,46.46 110.23,57.68 89.51,24.99 190.62,21 280.04,-2.28 89.23,-23.19 172.85,-74.31 218.27,-156.13 -17.1,0 -34.21,-2 -51.31,-6.65 -6.46,-1.81 -5.42,-13.02 1.71,-12.07 49.42,6.46 101.87,-2.19 144.92,-28.03 35.73,-21.57 65,-55.4 80.48,-94.26 14.83,-36.96 23.19,-88.19 -4.75,-120.69zm-452.61 -219.6l0 0c0.85,-3.99 4.66,-7.7 8.65,-8.65 30.41,-7.13 65,4.75 89.32,22.9 23.37,17.3 38.96,44.47 46.56,72.03 1.9,6.74 -7.79,9.22 -10.26,2.85 -9.69,-26.8 -31.55,-46.09 -55.97,-59.77 -11.88,-6.75 -24.61,-11.4 -38.1,-13.87 -7.04,-1.24 -14.83,-2.09 -21.95,-0.85 -5.7,0.95 -10.45,1.8 -15.01,-2.57 -3.52,-3.32 -4.28,-7.41 -3.23,-12.07zm74.5 208.87l0 0c0,27.37 -13.97,49.6 -31.26,49.6 -17.48,0 -31.55,-22.23 -31.55,-49.6 0,-27.37 14.07,-49.6 31.55,-49.6 17.3,0 31.26,22.24 31.26,49.6zm-188.24 -33.54l0 0c10.45,-6.75 24.99,-7.7 38.01,-7.89 0.95,-7.51 2.47,-14.92 3.61,-22.33 2.37,-15.87 3.04,-31.83 2.37,-47.8 -0.47,-14.35 22.14,-14.35 22.33,0 0.38,16.72 -0.85,33.17 -3.33,49.7 -1.52,10.36 -3.7,20.72 -4.28,31.26 -0.38,5.89 -4.75,10.83 -11.02,10.83 -12.93,0.19 -47.32,-2.85 -42.95,18.72 0.57,3.32 2.66,5.8 5.22,7.89 5.51,4.46 12.07,8.17 17.96,12.26 6.08,4.09 11.98,8.27 18.06,12.35 4.94,3.52 10.74,6.65 13.5,12.45 1.52,3.23 -0.19,7.79 -4.37,7.6 -9.13,-0.38 -17.11,-7.51 -24.61,-12.07 -7.89,-4.85 -15.87,-9.6 -24.04,-14.35 -11.41,-6.65 -19.39,-14.44 -21.48,-28.03 -1.9,-11.88 5.22,-24.23 15.02,-30.6zm-198.23 -86.19l0 0c-2.28,6.37 -11.97,3.89 -10.07,-2.85 7.6,-27.56 23.19,-54.74 46.37,-72.03 24.52,-18.15 59.11,-30.03 89.32,-22.9 3.99,0.95 7.79,4.66 8.74,8.65 0.95,4.75 0.57,8.65 -3.23,12.07 -4.75,4.66 -9.88,3.23 -15.77,2.37 -7.04,-1.04 -14.92,-0.09 -22.05,1.24 -13.11,2.57 -25.66,7.13 -37.25,13.69 -24.42,13.69 -46.18,32.97 -56.07,59.77zm91.23 169.33l0 0c-17.3,0 -31.36,-22.23 -31.36,-49.6 0,-27.37 14.07,-49.6 31.36,-49.6 17.48,0 31.45,22.24 31.45,49.6 0,27.37 -13.97,49.6 -31.45,49.6zm365.09 27.56l0 0c-0.28,2.37 -20.81,238.89 -190.81,238.89 -43.9,0 -79.06,-14.54 -104.53,-43.24 -58.54,-65.47 -46.37,-180.93 -45.8,-185.77l0.76 -5.8 5.51 -2.09c1.9,-0.67 4.18,-1.52 325.09,-12.26l10.54 -0.29 -0.76 10.55zm272.54 -20.81l0 0c-14.63,6.65 -28.7,14.06 -42.38,22.52 -13.4,8.17 -26.89,15.59 -39.34,24.9 -0.76,0.57 -1.52,1.24 -2.09,1.71 4.56,6.84 8.93,13.78 12.92,20.81 5.51,9.59 9.31,20.24 12.17,30.88 1.42,5.89 -7.8,10.17 -10.26,4.28 -4.28,-9.6 -9.31,-18.63 -14.82,-27.56 -3.8,-6.46 -8.17,-12.16 -13.3,-17.48 -5.89,5.23 -11.41,10.64 -16.54,16.44 -9.41,10.36 -16.63,22.33 -26.42,32.21 -5.32,5.51 -13.68,-0.19 -12.26,-7.13 3.33,-15.49 13.59,-28.13 24.23,-39.53 10.07,-11.02 21.48,-20.81 33.45,-29.56 13.4,-9.59 27.94,-18.53 43.14,-25.18 15.39,-6.65 31.36,-12.17 47.13,-17.87 6.08,-2.28 10.26,7.79 4.37,10.55z"/>
      <path class="fil4" d="M4802.28 2821.28c1.81,2.85 1.81,6.46 0.57,9.41 -1.43,3.33 -3.71,4.85 -6.94,6.18 -3.8,1.52 -7.32,-0.09 -10.93,-1.04 -2.19,-0.57 -4.37,-1.05 -6.65,-1.43 -0.09,0 -0.28,-0.1 -0.47,-0.1 -0.09,0 -0.19,0 -0.67,-0.09 -1.24,-0.09 -2.47,-0.19 -3.61,-0.19 -2.28,-0.19 -4.56,-0.19 -6.84,-0.19 -2.19,0 -4.47,0.09 -6.65,0.38 -0.47,0 -0.95,0.09 -1.33,0.09 0.38,-0.19 0.09,-0.09 -0.76,0 -1.14,0.19 -2.28,0.57 -3.52,0.76 -2.66,0.47 -4.37,0.19 -6.37,0.76 -2.28,0.67 -4.46,1.43 -6.75,2.19 -3.04,1.04 -6.27,-0.95 -7.41,-3.61 -1.43,-3.14 0.09,-5.99 2.57,-7.89 2.09,-1.61 4.37,-3.42 6.74,-4.46 1.05,-0.48 1.52,-1.04 2.94,-2.09 1.33,-0.95 2.85,-1.61 4.47,-2.19 0.57,-0.19 1.14,-0.38 1.71,-0.57 0.09,-0.09 0.57,-0.19 1.04,-0.28 0.09,0 0.28,-0.1 0.67,-0.29 0.19,0 0.38,-0.09 0.57,-0.19 0.48,-0.29 1.04,-0.48 1.52,-0.57 0.57,-0.19 1.14,-0.38 1.81,-0.57 2.28,-0.57 4.56,-1.04 6.93,-1.43 5.7,-0.95 11.41,-1.14 17.2,-0.57 3.04,0.38 6.08,0.76 9.12,1.43 4.66,0.86 8.37,2.38 11.02,6.56z"/>
      <path class="fil8" d="M4778.71 2903.1c25.47,32.02 26.32,77.16 22.43,115.93 -4.27,42.86 -14.16,85.43 -26.61,126.57 -6.27,20.62 -13.3,41.05 -21.28,61.1 -7.51,18.81 -18.53,38.01 -23.76,57.68 -10.65,0.09 -21.48,1.52 -31.93,4.28 -17.2,4.66 -32.88,12.16 -47.13,21.67 0.38,-1.14 0.38,-2.37 0,-3.7 -3.23,-10.46 -12.35,-18.72 -18.15,-27.85 -6.65,-10.45 -12.17,-21.38 -16.25,-33.16 -9.03,-26.61 -11.59,-55.12 -11.12,-83.15 0.95,-52.26 5.8,-107.76 33.64,-153.37 0.29,-0.19 0.67,-0.38 0.95,-0.57 8.26,-4.75 0.94,-17.11 -7.41,-12.73 -65.19,33.26 -134.56,57.49 -207.16,67.75 -34.78,4.94 -69.94,5.04 -105,4.18 -35.54,-0.95 -71.18,-3.8 -106.05,-11.12 -66.89,-14.16 -127.33,-47.8 -170.19,-101.68 -36.49,-45.71 -65.19,-114.6 -44.95,-173.04 4.66,-13.4 12.54,-26.89 24.8,-34.69 17.2,-11.02 36.49,-4.65 53.02,4.37 33.26,17.96 60.34,44.66 76.97,78.68 4.66,9.6 17.2,2.28 15.87,-6.65 -5.6,-35.16 -10.35,-72.32 -0.19,-107.09 8.17,-28.13 29.27,-54.55 58.06,-63.1 32.31,-9.5 62.34,11.69 85.14,32.59 23.85,21.85 43.24,47.99 57.39,77.16 3.99,8.37 16.25,2.28 14.35,-6.08 -7.98,-36.21 19.96,-69.85 52.45,-82.01 38.11,-14.35 80.39,1.33 112.61,22.52 64.23,42.09 111.08,111.37 133.7,184.16 -3.89,3.61 -0.09,11.5 5.61,9.6 0.38,-0.09 0.85,-0.19 1.33,-0.38 1.71,0.19 3.52,-0.28 4.94,-1.33 31.64,-7.13 63.86,8.36 83.91,33.45z"/>
      <path class="fil3" d="M4780.61 5154.07l0 34.11c-55.87,-0.09 -111.75,-0.28 -167.72,-0.38 -127.91,-0.09 -255.81,-0.09 -383.72,-0.09l-14.54 -33.64 565.97 0z"/>
      <path class="fil4" d="M4758.18 2769.78c0.29,0.09 0.57,0.28 0.86,0.28 0.38,0 0.76,0 1.04,0 3.14,-0.09 5.61,2.38 6.08,5.32 0.48,3.04 -1.43,5.61 -4.18,6.65 -0.29,0.19 -0.48,0.47 -0.67,0.67 -1.24,1.99 -2.95,3.51 -5.51,4.37 -1.14,0.38 -2.38,0.76 -3.61,1.14 -0.47,0.19 -0.95,0.38 -1.52,0.57 -0.09,0 -0.76,0.28 -1.14,0.38 -0.19,0.09 -0.38,0.19 -0.47,0.28 -0.57,0.19 -1.14,0.48 -1.71,0.76 -2.19,1.14 -4.28,2.38 -6.37,3.7 -0.76,0.48 -1.43,1.05 -2.09,1.52 0,0 -0.85,0.67 -1.04,0.76 -0.38,0.38 -0.76,0.67 -1.24,1.04 -1.8,1.62 -3.8,3.14 -5.41,4.94 -0.38,0.47 -0.85,0.94 -1.24,1.43 -0.09,0.09 -0.38,0.47 -0.57,0.76 -0.19,0.19 -0.76,0.95 -0.85,1.05 -0.28,0.47 -0.57,0.86 -0.85,1.33 -1.43,2 -2.66,4.09 -3.71,6.37 -0.19,0.48 -0.47,0.95 -0.66,1.43 -0.1,0.19 -0.19,0.29 -0.19,0.38 0,0 -0.09,0.09 -0.19,0.38 -0.38,1.14 -0.85,2.38 -1.24,3.61 -1.04,3.23 -4.37,5.32 -7.79,4.37 -3.42,-0.95 -5.13,-4.37 -4.37,-7.69 1.24,-5.89 3.52,-11.59 6.37,-16.82 2.85,-5.13 6.46,-10.36 10.45,-14.45 4.28,-4.37 9.31,-8.26 14.63,-11.21 2.94,-1.62 6.08,-3.14 9.22,-4.19 1.71,-0.67 3.61,-0.76 5.42,-0.19l2.56 1.05z"/>
      <path class="fil4" d="M4758.94 3348.29c6.08,-2.28 10.26,7.8 4.37,10.55 -14.63,6.65 -28.7,14.07 -42.48,22.52 -13.3,8.17 -26.8,15.58 -39.34,24.89 -0.76,0.57 -1.43,1.24 -2.09,1.71 4.56,6.84 9.03,13.78 13.02,20.81 5.42,9.59 9.31,20.24 12.07,30.89 1.52,5.89 -7.7,10.17 -10.26,4.27 -4.18,-9.59 -9.22,-18.62 -14.73,-27.56 -3.89,-6.46 -8.26,-12.16 -13.4,-17.48 -5.8,5.23 -11.4,10.65 -16.53,16.44 -9.31,10.36 -16.54,22.33 -26.32,32.22 -5.42,5.51 -13.69,-0.19 -12.26,-7.13 3.23,-15.49 13.59,-28.13 24.14,-39.53 10.07,-11.02 21.48,-20.81 33.54,-29.55 13.4,-9.6 27.94,-18.53 43.14,-25.18 15.3,-6.65 31.36,-12.16 47.13,-17.87z"/>
      <path class="fil6" d="M4743.55 3897.82c7.98,13.21 4.85,30.12 1.8,44.28 -6.08,29.27 -17.39,57.3 -33.07,82.77 -8.17,13.3 -47.23,72.6 -61.39,36.39 -5.51,-14.26 0.57,-32.5 4.18,-46.66 3.61,-14.35 8.07,-28.41 13.4,-42.19 9.88,-25.46 23,-49.32 38.11,-71.84 3.13,0.57 6.56,-0.76 7.89,-4.85 5.04,-15.3 22.9,-7.98 29.08,2.09z"/>
      <path class="fil6" d="M4661.83 3873.97c7.98,13.11 4.75,30.12 1.81,44.28 -6.18,29.27 -17.39,57.2 -33.07,82.67 -8.17,13.3 -47.23,72.69 -61.39,36.39 -5.51,-14.26 0.57,-32.41 4.09,-46.56 3.61,-14.35 8.17,-28.51 13.49,-42.29 3.71,-9.6 7.89,-18.91 12.35,-27.94 7.6,-15.2 16.25,-29.84 25.75,-43.91 3.14,0.57 6.56,-0.67 7.89,-4.75 5.04,-15.3 22.9,-8.08 29.07,2.09z"/>
      <path class="fil4" d="M4606.33 4606.05c0.57,17.2 4.28,37.54 0.38,54.54 -3.7,16.15 -18.24,17.3 -32.31,18.34 -21.66,1.71 -43.43,2.76 -65.09,3.7 -41.72,1.81 -83.91,3.23 -125.62,1.81 -4.85,-0.19 -8.08,-3.8 -8.46,-8.46 -6.93,-87.9 -6.84,-176.18 -7.98,-264.27 -0.09,-4.85 3.89,-8.08 8.36,-8.36 20.52,-1.43 41.05,-2.09 61.57,-2.94 0.09,-1.33 0.29,-2.76 0.29,-4.19 0.38,-7.98 0.38,-15.96 0.19,-23.85 -0.19,-7.89 -1.24,-15.87 -1.14,-23.76 0,-2.37 1.24,-4.09 2.95,-4.94 1.23,-2.28 3.42,-4.18 6.84,-4.28 15.68,-0.57 31.35,-0.29 47.04,-0.85 6.27,-0.19 15.11,-2.09 20.15,2.85 4.85,4.66 4.28,13.4 4.94,19.48 1.52,15.11 2,30.31 1.43,45.42 10.45,-2.19 20.72,-1.33 31.65,-0.95 12.92,0.47 25.75,0.57 38.67,0.28 5.42,-0.09 9.03,4.37 9.41,9.41 3.04,42.57 3.61,85.43 4.85,128.1 0.67,20.91 1.14,41.91 1.9,62.91zm-22.62 53.5l0 0c9.03,-1.24 7.13,-8.55 6.75,-16.25 -3.42,-72.98 -8.65,-146.15 -9.5,-219.22 -9.79,-0.38 -19.57,-0.67 -29.46,-0.67 -11.21,0.09 -21.86,0.67 -32.5,-2.09 -0.76,10.17 -1.81,20.43 -3.32,30.59 -0.57,3.71 -4.75,5.89 -7.98,6.08 -16.06,1.05 -32.02,2.19 -47.99,3.23 -6.75,0.48 -15.2,2.47 -20.91,-2.28 -4.75,-3.99 -5.51,-10.07 -5.04,-15.96 0.76,-9.22 1.71,-18.34 2.47,-27.56 -17.39,1.52 -34.69,2.94 -52.07,4.09 0.38,82.67 5.13,165.15 7.7,247.83 36.01,-1.14 72.12,-1.61 108.14,-3.23 18.62,-0.76 37.25,-1.8 55.78,-2.94 9.22,-0.57 18.81,-0.38 27.94,-1.61zm-83.34 -217.7l0 0c3.23,-23.66 4.09,-47.8 2.28,-71.65 -0.1,-1.05 -0.95,-10.55 -1.52,-15.49 -0.09,0 -0.19,0 -0.38,0 -1.43,0 -2.85,0 -4.28,0 -3.52,0.09 -7.12,0.09 -10.64,0.19 -11.87,0.28 -23.76,0.95 -35.73,1.14 2.19,10.74 2.38,22.33 2.47,32.88 0.19,13.49 -0.19,27.08 -1.14,40.58 -0.19,3.42 -0.48,6.93 -0.67,10.35 0,0.38 0,3.14 -0.09,5.04 1.61,-0.1 3.23,-0.19 4.94,-0.29 3.42,-0.19 6.94,-0.38 10.36,-0.57 11.5,-0.76 22.9,-1.43 34.4,-2.19z"/>
      <path class="fil3" d="M4590.46 4643.3c0.38,7.7 2.28,15.01 -6.75,16.25 -9.12,1.24 -18.72,1.04 -27.94,1.61 -18.53,1.14 -37.16,2.19 -55.78,2.94 -36.02,1.62 -72.13,2.09 -108.14,3.23 -2.57,-82.67 -7.32,-165.15 -7.7,-247.83 17.39,-1.14 34.69,-2.57 52.07,-4.09 -0.76,9.22 -1.71,18.34 -2.47,27.56 -0.47,5.89 0.29,11.97 5.04,15.96 5.7,4.75 14.16,2.76 20.91,2.28 15.96,-1.05 31.93,-2.19 47.99,-3.23 3.23,-0.19 7.41,-2.37 7.98,-6.08 1.52,-10.17 2.56,-20.43 3.32,-30.59 10.64,2.76 21.29,2.19 32.5,2.09 9.88,0 19.67,0.28 29.46,0.67 0.85,73.07 6.08,146.24 9.5,219.22z"/>
      <g>
       <path class="fil1" d="M4516.72 4583.26c-20.43,-10.19 -45.92,-9.44 -65.73,1.91 -19.8,11.35 -33.33,32.97 -34.87,55.75l138.64 -4.02c-2.86,-22.65 -17.61,-43.46 -38.04,-53.64z"/>
       <path class="fil1" d="M4464.67 4556.97c4.27,4.19 10.24,7.12 16.15,6.22 6.9,-1.06 12.05,-6.93 15.45,-13.03 7.86,-14.11 9.49,-31.56 4.39,-46.88 -1.4,-4.2 -3.32,-8.31 -6.33,-11.55 -8.04,-8.67 -24.99,-8.83 -33.33,-0.45 -9.76,9.81 -10.37,28.84 -7.88,41.28 1.8,8.96 5.04,18 11.56,24.41z"/>
      </g>
      <path class="fil9" d="M4502.66 4370.2c1.8,23.85 0.95,47.99 -2.28,71.65 -11.5,0.76 -22.9,1.43 -34.4,2.19 -3.42,0.19 -6.94,0.38 -10.36,0.57 -1.71,0.09 -3.33,0.19 -4.94,0.29 0.09,-1.9 0.09,-4.66 0.09,-5.04 0.19,-3.42 0.47,-6.93 0.67,-10.35 0.95,-13.5 1.33,-27.09 1.14,-40.58 -0.09,-10.55 -0.28,-22.14 -2.47,-32.88 11.97,-0.19 23.85,-0.86 35.73,-1.14 3.52,-0.09 7.13,-0.09 10.64,-0.19 1.43,0 2.85,0 4.28,0 0.19,0 0.28,0 0.38,0 0.57,4.94 1.43,14.44 1.52,15.49z"/>
      <path class="fil2" d="M4493.82 3797c10.36,30.88 24.99,59.87 39.72,88.85 -30.03,19.76 -59.11,41.05 -86.95,63.76 -26.7,21.67 -51.31,45.42 -76.69,68.42 -7.03,-24.52 -15.49,-48.75 -24.61,-72.6 -8.84,-23.19 -19.48,-45.24 -29.94,-67.56 30.03,-14.07 59.96,-28.22 90.18,-41.81 29.17,-13.21 58.25,-27.85 88.28,-39.06z"/>
      <path class="fil4" d="M4491.45 3369.1l-0.76 10.55c-0.19,2.38 -20.72,238.89 -190.81,238.89 -43.81,0 -78.96,-14.54 -104.53,-43.24 -58.54,-65.47 -46.28,-180.93 -45.71,-185.77l0.67 -5.8 5.51 -2.09c1.9,-0.67 4.28,-1.52 325.08,-12.26l10.55 -0.29zm-52.55 129.42l0 0c20.72,-43.71 28.79,-89.51 31.55,-109.75 -111.56,3.71 -266.35,9.12 -302.47,10.83 -1.61,25.56 -2.85,107.28 37.25,157.74 9.31,-20.81 27.84,-37.63 48.46,-47.04 28.79,-13.12 61.1,-14.54 91.89,-8.46 1.14,0.19 2.09,0.67 2.85,1.24 28.41,-12.64 61.01,-13.97 90.46,-4.56zm-9.13 17.68l0 0c-54.35,-13.59 -113.55,12.16 -138.26,63.57 -2.56,5.42 -11.88,1.52 -9.69,-4.09 8.74,-23 23.47,-43.62 42.95,-58.54 -21.19,-1.24 -42.57,0.57 -62.24,8.84 -20.43,8.55 -36.78,23 -48.09,41.62 21.38,21.09 50.08,31.93 85.43,31.93 63.95,0 104.43,-38.48 129.9,-83.33z"/>
      <path class="fil4" d="M4490.97 3179.91c1.91,6.75 -7.89,9.22 -10.26,2.85 -9.79,-26.8 -31.55,-46.09 -55.97,-59.77 -11.97,-6.74 -24.71,-11.4 -38.2,-13.87 -7.03,-1.24 -14.73,-2.09 -21.86,-0.86 -5.7,0.95 -10.45,1.81 -15.02,-2.56 -3.61,-3.33 -4.27,-7.41 -3.23,-12.07 0.85,-3.99 4.65,-7.7 8.65,-8.65 30.31,-7.13 65,4.75 89.33,22.9 23.28,17.3 38.87,44.47 46.56,72.03z"/>
      <path class="fil8" d="M4470.44 3388.77c-2.76,20.24 -10.83,66.04 -31.55,109.75 -29.46,-9.41 -62.05,-8.07 -90.46,4.56 -0.76,-0.57 -1.71,-1.05 -2.85,-1.24 -30.79,-6.08 -63.1,-4.66 -91.89,8.46 -20.62,9.41 -39.15,26.22 -48.46,47.04 -40.1,-50.46 -38.87,-132.18 -37.25,-157.74 36.11,-1.71 190.91,-7.13 302.47,-10.83z"/>
      <path class="fil5" d="M4457.05 3779.7c0.85,3.33 1.33,8.08 2.94,11.69 -20.43,9.6 -41.33,18.34 -61.77,27.56 -29.83,13.4 -59.87,26.42 -89.89,39.44 -0.66,-1.33 -1.61,-2.57 -2.94,-3.8 -5.42,-5.13 -14.44,-6.18 -21.28,-7.98 -8.46,-2.19 -17.01,-4.19 -25.56,-5.99 -17.87,-3.89 -35.92,-7.31 -53.98,-9.98 -21.38,-3.23 -43.05,-5.99 -64.71,-7.7 1.43,-5.41 1.9,-10.93 2.66,-16.53 0.76,-6.08 1.52,-12.16 2.28,-18.24 0.67,-6.08 1.52,-12.07 2.28,-18.15 0.48,-3.04 0.76,-6.08 1.33,-9.13 76.21,17.3 157.74,14.26 233.57,-0.09 21.86,-4.08 43.62,-9.79 64.9,-16.91 2.28,7.03 4.56,14.16 6.46,21.38 1.33,4.85 2.47,9.69 3.71,14.44z"/>
      <path class="fil4" d="M4389.58 3252.89c17.3,0 31.36,22.24 31.36,49.6 0,27.37 -14.06,49.61 -31.36,49.61 -17.39,0 -31.45,-22.24 -31.45,-49.61 0,-27.37 14.06,-49.6 31.45,-49.6z"/>
      <path class="fil9" d="M4291.51 3579.77c24.71,-51.41 83.91,-77.16 138.26,-63.57 -25.46,44.85 -65.94,83.33 -129.9,83.33 -35.35,0 -64.05,-10.83 -85.43,-31.93 11.31,-18.63 27.65,-33.07 48.09,-41.62 19.67,-8.27 41.05,-10.07 62.24,-8.84 -19.48,14.92 -34.21,35.54 -42.95,58.54 -2.19,5.61 7.13,9.5 9.69,4.09z"/>
      <path class="fil4" d="M4299.02 3190.93c0.38,16.72 -0.85,33.17 -3.33,49.7 -1.52,10.36 -3.8,20.72 -4.37,31.27 -0.29,5.89 -4.75,10.83 -10.93,10.83 -13.02,0.19 -47.32,-2.85 -43.05,18.72 0.67,3.33 2.76,5.8 5.32,7.89 5.51,4.46 12.07,8.17 17.96,12.26 5.99,4.09 11.97,8.27 17.96,12.35 5.04,3.51 10.83,6.65 13.59,12.44 1.52,3.23 -0.29,7.79 -4.37,7.61 -9.12,-0.38 -17.1,-7.51 -24.61,-12.07 -7.98,-4.85 -15.96,-9.6 -24.04,-14.35 -11.4,-6.65 -19.39,-14.44 -21.57,-28.03 -1.81,-11.88 5.32,-24.23 15.11,-30.6 10.36,-6.75 24.9,-7.7 37.92,-7.89 1.04,-7.51 2.47,-14.92 3.61,-22.33 2.38,-15.87 3.04,-31.83 2.47,-47.8 -0.48,-14.35 22.04,-14.35 22.33,0z"/>
      <path class="fil1" d="M4264.95 4345.62c-31.83,183.31 -31.83,389.42 -31.36,437.22 -3.8,4.18 -7.7,8.65 -11.21,13.4 -55.31,73.07 -55.5,170.48 -50.27,257.81 0,0.85 0.09,1.71 0.28,2.66l-206.96 -477.13c-14.63,-33.54 -47.7,-55.31 -84.19,-55.31l-76.21 0c4.94,-20.15 7.03,-41.24 11.02,-61.57 3.8,-19 7.98,-37.92 12.44,-56.73 9.5,-38.87 20.24,-78.11 34.12,-115.55 2.85,-7.6 -8.84,-10.45 -11.88,-3.33 -4.65,11.31 -9.22,22.71 -13.59,34.02 -10.55,26.89 -20.24,53.88 -28.41,81.72 -5.61,19.29 -10.46,38.77 -14.54,58.44 -4.18,19.67 -9.22,40 -10.26,60.15 0,0.95 0.09,1.9 0.38,2.85l-269.87 0c50.27,-84.48 107.29,-165.25 172,-239.56 68.61,-78.78 144.35,-151 223.69,-218.65 41.43,-35.26 83.81,-69.37 126.57,-102.82 1.33,-0.57 2.37,-1.52 3.42,-2.57 0.19,-0.19 0.38,-0.48 0.67,-0.67 5.61,2.66 11.31,4.85 15.3,6.94 60.25,31.45 122.2,59.49 182.26,91.23 4.56,2.47 12.17,0.67 13.02,-5.32 5.61,-37.06 14.16,-74.03 26.52,-109.38 5.7,-16.44 12.54,-32.5 19.95,-48.27 1.71,69.46 -2.66,276.72 -32.88,450.42z"/>
      <path class="fil7" d="M3837.15 4321.1c-10.55,26.89 -20.24,53.88 -28.41,81.72 -5.61,19.29 -10.46,38.77 -14.54,58.44 -4.18,19.67 -9.22,40 -10.26,60.15 0,0.95 0.09,1.9 0.38,2.85l-197.65 0c81.82,-69.75 165.35,-137.5 250.49,-203.17z"/>
      <path class="fil2" d="M4287.71 3867.04c5.04,2 4.94,0.09 2.19,6.18 -1.52,3.23 -3.23,6.46 -4.75,9.69 -3.52,7.22 -6.75,14.44 -9.88,21.76 -6.65,15.2 -12.54,30.79 -17.96,46.47 -9.69,27.94 -16.54,56.54 -21.19,85.62 -32.12,-17.01 -63.29,-35.54 -95.21,-52.83 -17.77,-9.69 -35.73,-19.2 -53.69,-28.6 -13.3,-7.03 -28.79,-13.11 -41.9,-21.19 2.09,-3.32 5.7,-8.83 6.17,-9.79 2.28,-3.99 4.66,-7.98 7.03,-11.97 5.04,-8.65 10.26,-17.2 15.39,-25.85 10.26,-17.3 20.24,-34.78 29.65,-52.55 29.08,5.22 58.63,8.07 87.9,12.92 15.87,2.66 31.74,5.42 47.42,8.65 15.78,3.32 33.83,5.6 48.84,11.5z"/>
      <path class="fil10" d="M3939.25 4590.85l258.85 596.76c-17.87,0 -35.73,0 -53.69,-0.1l-275.29 -634.77 12.07 0c25.28,0 47.99,15.01 58.06,38.1z"/>
      <path class="fil4" d="M4168.83 3093.62c0.95,4.75 0.47,8.65 -3.23,12.07 -4.85,4.65 -9.88,3.23 -15.78,2.37 -7.13,-1.04 -14.92,-0.1 -22.04,1.23 -13.21,2.57 -25.66,7.13 -37.35,13.69 -24.33,13.69 -46.09,32.98 -55.97,59.77 -2.28,6.37 -12.07,3.9 -10.17,-2.85 7.7,-27.56 23.28,-54.73 46.47,-72.03 24.42,-18.15 59.01,-30.03 89.32,-22.9 3.99,0.95 7.79,4.66 8.74,8.65z"/>
      <path class="fil4" d="M4125.69 3252.89c17.39,0 31.45,22.24 31.45,49.6 0,27.37 -14.07,49.61 -31.45,49.61 -17.39,0 -31.45,-22.24 -31.45,-49.61 0,-27.37 14.06,-49.6 31.45,-49.6z"/>
      <path class="fil3" d="M3838.05 4552.74l275.29 634.77c-76.78,-0.09 -153.66,-0.09 -230.44,-0.38 -288.59,-1.04 -577.19,-1.43 -865.78,-1.14l-262.17 -604.46c-2.85,-6.56 -2.19,-13.59 1.71,-19.48 3.8,-5.89 10.07,-9.31 17.11,-9.31l1064.29 0zm-381.72 474.37l0 0c68.7,0 102.91,-55.69 76.49,-124.39 -26.42,-68.7 -103.57,-124.39 -172.28,-124.39 -68.61,0 -102.91,55.69 -76.5,124.39 26.51,68.7 103.58,124.39 172.28,124.39z"/>
      <path class="fil8" d="M4026.39 2966.95c-18.24,37.82 -30.12,80.01 -42.1,119.64 -15.3,50.84 -27.65,102.82 -37.63,154.89 -0.95,5.04 -1.8,9.98 -2.66,15.01 -3.8,-23.85 -6.46,-47.89 -7.89,-71.74 -1.99,-32.97 -4.46,-66.23 -1.52,-99.3 4.75,-53.41 34.11,-112.23 91.8,-118.5z"/>
      <path class="fil5" d="M3914.07 3822.66c-18.15,-23.28 -36.78,-46.18 -55.31,-69.08 -9.31,-11.5 -18.44,-23.09 -27.65,-34.59 -4.65,-5.8 -9.98,-11.69 -14.82,-17.87 -66.42,80.11 -140.07,154.89 -220.65,220.37 6.56,6.17 11.97,14.06 17.58,20.52 8.74,10.07 17.29,20.33 25.84,30.6 13.68,16.51 27.26,33.13 40.81,49.77 98.83,-37.93 195.57,-81.44 290.98,-128.5 -19.07,-23.63 -38.07,-47.32 -56.78,-71.22z"/>
      <path class="fil6" d="M3679.87 4022.38c2.83,3.47 5.69,6.91 8.51,10.38 16.92,20.72 33.83,41.43 50.56,62.24 8.36,10.45 16.72,20.91 25.09,31.35 5.51,6.94 12.92,14.26 16.91,22.62 73.84,-71.46 153.09,-137.5 234.43,-200.03 -14.83,-18.37 -29.69,-36.7 -44.51,-55.07 -95.41,47.06 -192.15,90.57 -290.98,128.5z"/>
      <path class="fil5" d="M3937.73 3292.98c-5.23,32.6 -9.6,65.38 -12.55,98.26 -1.61,17.48 -2.85,34.97 -3.42,52.55 -9.88,-2.28 -20.81,-14.25 -26.8,-20.43 -8.46,-8.65 -15.49,-18.53 -21.38,-29.08 -12.17,-21.85 -18.25,-46.75 -18.06,-71.65 0.09,-23.66 5.22,-58.54 28.31,-70.89 29.65,-15.78 42.76,19.19 53.88,41.24z"/>
      <path class="fil11" d="M3829.69 3550.5c16.35,11.97 32.21,24.61 47.7,37.72 -21.76,30.6 -44.47,60.53 -68.23,89.52 -1.14,0.67 -2,1.8 -2.47,3.13 -27.27,33.07 -55.78,65 -85.62,95.88 -56.54,58.35 -117.55,111.18 -180.83,161.83 -29.08,-24.8 -49.13,-55.4 -66.32,-88.94 69.46,-58.92 135.41,-122.58 202.02,-184.63 33.45,-31.07 66.8,-62.15 100.25,-93.31 9.22,-8.56 18.34,-17.2 27.56,-25.75 3.9,-3.61 5.8,-7.51 11.97,-5.32 4.75,1.71 9.88,6.94 13.97,9.88z"/>
      <path class="fil9" d="M3753.9 3562.42c-7.69,7.03 -15.2,14.06 -22.8,21.09 -6.65,6.18 -13.3,12.35 -19.96,18.63 -51.5,47.8 -103.2,95.79 -154.32,143.96 -30.6,28.79 -61.67,57.3 -91.31,87.14 -0.09,-0.47 -0.48,-0.85 -0.67,-1.14 -8.84,-53.6 -18.06,-107 -29.08,-160.12 -14.25,-68.7 -31.17,-137.03 -52.65,-203.92 -2.28,-6.75 -12.73,-3.99 -10.83,2.94 68.99,240.7 81.15,492.52 136.64,736.07 7.8,33.74 16.25,67.37 26.04,100.63 4.94,17.3 10.07,34.68 15.96,51.79 4.75,13.4 9.31,27.37 15.49,40.29 -26.89,39.82 -50.84,81.06 -71.56,124.48l-490.14 0 -0.38 -2.09 -43.9 -192.71 379.15 -143.49 -3.42 -12.54c-65.95,-242.31 -267.97,-792.32 -269.87,-797.83l-3.99 -10.64 -11.22 1.42c-91.41,11.12 -196.13,43.24 -292.11,79.44l-41.43 -181.97c18.62,30.41 39.72,59.58 58.73,89.61 3.23,4.94 9.69,5.7 13.87,1.81 34.59,-31.55 68.04,-63.95 105.48,-92.27 36.69,-27.94 75.45,-52.45 115.37,-75.74 4.56,-2.66 6.08,-7.79 5.13,-12.73 0,-0.48 -0.19,-0.95 -0.38,-1.43 57.02,-5.23 114.41,-10.45 171.62,-6.27 16.25,1.24 32.21,3.42 47.89,6.56 39.63,7.8 77.54,21.76 113.46,41.53 96.35,53.12 174.94,135.41 254.67,210.1 26.32,24.71 52.83,49.32 79.35,73.83 23.47,21.57 46.28,43.9 71.17,63.57z"/>
      <path class="fil12" d="M3753.9 3562.42c-7.69,7.03 -15.2,14.06 -22.8,21.09 -6.65,6.18 -13.3,12.35 -19.96,18.63 -95.02,-105.95 -199.17,-203.45 -303.13,-300.76 -31.93,-30.03 -64.14,-60.06 -99.87,-85.43 -23,-16.25 -47.41,-30.6 -72.88,-42.57 39.63,7.8 77.54,21.76 113.46,41.53 96.35,53.12 174.94,135.41 254.67,210.1 26.32,24.71 52.83,49.32 79.35,73.83 23.47,21.57 46.28,43.9 71.17,63.57z"/>
      <path class="fil1" d="M3532.83 4902.72c26.42,68.7 -7.79,124.39 -76.49,124.39 -68.7,0 -145.77,-55.69 -172.28,-124.39 -26.42,-68.7 7.89,-124.39 76.5,-124.39 68.7,0 145.86,55.69 172.28,124.39z"/>
      <path class="fil4" d="M3336.22 4173.4l3.42 12.55 -379.25 143.48 43.9 192.71 -9.31 2.09 -43.61 -191.38 -164.11 62.15 -119.26 -220.56c-34.4,34.49 -69.65,68.04 -105.67,100.92 -68.13,62.33 -138.36,122.49 -213.33,176.46 -24.42,17.48 -49.51,34.59 -75.17,50.74 0.1,2.76 0.1,5.61 0.19,8.37l-14.07 0.28c-47.7,29.18 -97.69,54.83 -150.14,73.46 -72.98,25.85 -152.8,42.1 -228.92,19.77 -92.18,-27.18 -160.5,-111.28 -195.94,-197.37 -41.15,-99.96 -33.07,-212.67 -6.94,-315.58 23.85,-94.26 64.81,-184.06 113.46,-267.97 22.81,-39.34 47.13,-78.2 74.97,-114.12 1.43,-1.81 3.04,-2.85 4.66,-3.23 -14.16,-12.26 -27.94,-24.99 -41.15,-38.2 -3.33,-3.33 -3.7,-8.36 -1.61,-12.45 12.83,-24.9 29.36,-47.42 48.56,-67.56 3.04,-3.14 8.08,-3.61 11.69,-1.52 11.59,6.37 23,12.92 34.3,19.57l11.31 6.75c8.08,5.04 16.25,10.07 24.23,15.3 2.76,-5.42 7.13,-10.65 9.98,-15.02 5.89,-8.84 12.26,-17.3 18.43,-25.85 5.23,-7.22 10.26,-16.73 17.2,-22.43 7.98,-6.56 17.29,-2.85 25.94,0.09 9.41,3.13 18.91,6.27 28.32,9.41 7.04,2.37 17.87,3.89 22.05,10.83 5.23,8.65 -2.57,18.15 -6.65,25.56 -4.75,8.36 -9.41,16.72 -14.16,25.18 -4.85,8.74 -9.69,17.48 -14.54,26.22 -3.42,6.37 -6.46,14.83 -12.26,19.48 14.73,11.22 29.46,22.43 44.09,33.54 30.31,23 60.63,45.8 91.7,67.76 15.49,10.93 31.17,21.57 47.04,31.93 12.93,8.46 26.42,16.15 38.48,25.75 2.38,-9.12 4.85,-18.34 7.22,-27.46 19.76,-75.36 41.43,-150.14 61.29,-225.5 2.09,-7.98 14.16,-4.56 12.26,3.33 -18.25,75.83 -34.21,152.23 -51.6,228.25 -15.49,67.56 -30.6,135.6 -48.46,202.69 107.19,-40.58 216.28,-76.59 327.17,-105.67l-116.69 -328.22 10.83 -5.8c8.74,-4.66 138.64,-73.46 294.01,-132.85l-41.71 -183.4 9.22 -2.09 41.43 181.97c95.88,-36.2 200.6,-68.32 292.11,-79.44l11.21 -1.43 3.9 10.65c1.99,5.51 203.93,555.52 269.97,797.83zm-535.76 186.16l0 0 504.78 -191.1c-63.57,-227.59 -233.85,-695.68 -261.89,-772.37 -213.33,29.74 -503.54,174.94 -563.03,205.54l109.47 307.69c4.56,-1.43 8.84,-3.23 12.73,-6.08 5.04,-3.61 10.07,-7.22 15.11,-10.83 26.99,-19.01 48.46,-42.48 67.94,-68.99 40.76,-55.78 79.35,-113.27 119.26,-169.71 3.8,-5.32 9.41,-6.65 15.3,-3.99 33.93,15.58 22.43,57.3 14.26,84.86 -8.37,27.65 -18.06,54.83 -29.37,81.44 17.49,-14.07 35.45,-27.65 54.36,-40.2 28.5,-18.91 58.06,-36.11 87.8,-52.93 18.05,-10.17 36.02,-21.29 54.64,-30.31 16.16,-7.89 33.64,-5.13 40.1,13.21 6.08,17.2 -4.18,31.64 -15.87,43.33 -3.89,3.89 -7.79,7.89 -11.69,11.78 11.78,-8.55 23.95,-17.29 36.78,-22.61 12.83,-5.42 27.37,-0.47 32.88,12.73 7.03,16.82 -6.84,29.84 -17.01,41.34 -12.54,14.16 -26.23,27.27 -40.48,39.53 -1.52,1.33 -3.14,2.56 -4.75,3.89 15.49,-5.13 31.55,-10.55 47.42,-13.21 14.63,-2.47 28.89,4.75 35.73,17.96 18.05,35.06 -33.17,62.24 -56.54,77.44 -67.85,44.38 -137.6,85.43 -209.15,123.35 -18.34,9.69 -36.78,19.19 -55.21,28.6 -10.36,5.32 -20.72,10.83 -31.27,15.87 -0.28,0.19 -1.43,0.76 -2.56,1.43 -1.24,1.81 -4.47,4.66 -5.13,5.42 -11.4,13.02 -22.99,25.85 -34.87,38.48 -7.03,7.41 -14.25,14.63 -21.28,21.95l111.56 206.49zm259.13 -480.07l0 0c5.32,-3.99 35.07,-23.94 18.53,-31.17 -6.56,-2.94 -18.15,3.04 -24.8,4.94 -8.17,2.28 -16.25,4.66 -24.32,7.13 -32.5,10.07 -63.19,23.85 -93.41,39.25 -14.44,7.31 -25.94,-12.64 -12.64,-21.57 25.66,-17.39 51.31,-34.78 75.55,-54.17 11.59,-9.31 22.8,-19.1 33.54,-29.36 5.32,-5.13 10.55,-10.45 15.49,-15.87 3.71,-4.09 12.83,-11.31 14.16,-16.63 1.81,-6.94 -8.46,0.76 -11.59,2.66 -7.6,4.56 -15.11,9.5 -22.52,14.25 -14.45,9.22 -28.89,18.44 -43.43,27.65 -20.24,12.83 -40.57,25.56 -61.1,38.2 -7.98,6.46 -16.15,12.83 -24.42,19.19 -11.5,8.74 -22.9,-10.83 -11.41,-19.48 29.18,-21.86 56.73,-45.52 82.87,-70.98 11.97,-11.69 23.85,-23.57 35.44,-35.64 4.46,-4.65 14.82,-12.73 14.82,-19.95 0,-8.27 -10.17,0.09 -14.07,2.28 -28.03,15.77 -55.87,31.65 -83.62,47.7 -53.03,30.59 -105.96,62.33 -157.65,95.02 -5.13,3.33 -11.21,-4.47 -6.56,-8.46 5.7,-4.85 11.4,-9.6 17.2,-14.35 -0.95,-2.38 -1.04,-5.13 0.19,-7.98 12.07,-28.32 23,-57.11 32.12,-86.57 5.22,-16.53 21.47,-52.74 8.83,-69.94 -42.09,60.06 -83.15,121.63 -128.76,179.03 -17.58,22.24 -37.44,41.24 -59.87,58.44 -5.7,4.37 -11.21,9.22 -17.1,13.3 -10.74,7.41 -27.46,9.69 -40.01,13.4 -65.28,19.39 -130.47,39.54 -195.09,61.2 -130.28,43.71 -258.47,93.41 -384.09,149.19 -14.35,6.37 -26.89,-14.54 -12.45,-21.19 68.99,-31.93 138.93,-61.76 209.63,-89.61 6.18,-2.38 12.45,-4.75 18.63,-7.13 6.46,-31.55 13.78,-62.91 21.48,-94.26 -35.54,-8.55 -66.9,-30.69 -97.5,-49.6 -35.35,-21.95 -70.61,-44 -105.29,-67 -49.42,-32.69 -98.64,-67.28 -144.25,-105.76 0.29,2.37 -0.29,4.94 -2.09,7.31 -1.33,1.81 -3.52,4.75 -4.09,5.51 -35.35,48.08 -66.61,99.49 -94.26,152.33 -45.33,86.47 -81.63,179.31 -97.12,276.15 -16.15,101.11 -1.33,211.24 53.69,298.85 43.9,69.94 108.8,125.72 192.8,136.08 77.26,9.5 154.23,-14.16 223.69,-46.09 81.91,-37.63 157.65,-88.09 229.01,-142.83 68.13,-52.26 134.37,-108.9 194.43,-170.29 42.67,-43.61 84.67,-87.52 125.72,-132.56 8.93,-9.79 17.49,-19.96 26.51,-29.65 6.65,-7.22 16.44,-10.45 25.19,-14.82 34.87,-17.67 69.65,-35.73 103.96,-54.45 33.45,-18.25 66.52,-37.25 99.2,-57.02 33.93,-20.53 68.8,-41.05 100.82,-64.71zm-826.82 43.52l0 0c5.04,-19.95 10.17,-39.81 15.3,-59.67 -16.53,-6.08 -31.07,-16.06 -45.8,-25.66 -15.87,-10.36 -31.55,-21.09 -47.04,-32.02 -31.07,-21.95 -61.39,-44.76 -91.7,-67.76 -30.22,-22.99 -60.63,-45.89 -91.13,-68.61 -17.48,-13.02 -34.97,-26.99 -52.93,-40.01 -2.09,-0.28 -3.9,-1.61 -4.85,-3.52 -9.41,-6.65 -19,-13.02 -28.89,-18.72 -13.97,15.59 -25.65,32.78 -35.44,51.22 59.3,52.36 121.35,100.25 186.92,144.54 33.93,22.9 68.32,44.94 102.91,66.8 29.36,18.53 59.2,42.38 92.65,53.4zm-169.52 -328.31l0 0c-0.86,-0.28 -1.62,-0.67 -2.38,-0.85 -2.76,-0.95 -5.61,-1.91 -8.36,-2.76 -5.61,-1.81 -11.21,-3.71 -16.82,-5.51 -5.51,-1.81 -11.12,-3.71 -16.72,-5.52 -2.47,-0.76 -2.94,-1.61 -4.66,-0.28 -2,1.52 -3.52,4.66 -4.94,6.56 -7.22,9.78 -14.44,19.48 -21.67,29.17 -3.52,4.66 -7.13,9.22 -10.83,13.69 -1.9,2.28 -3.7,4.56 -5.61,6.75 -0.09,0.19 -0.28,0.29 -0.48,0.47 4.94,3.42 9.98,6.75 14.83,10.26 11.59,8.37 23.09,16.92 34.5,25.47 1.52,-5.99 5.8,-11.59 8.83,-16.92 3.99,-7.03 7.98,-14.16 11.97,-21.28 4.19,-7.41 8.27,-14.92 12.35,-22.33 2,-3.61 3.99,-7.13 5.99,-10.74 0.85,-1.52 2.66,-3.89 3.99,-6.18z"/>
      <path class="fil5" d="M3192.26 2648.14c1.52,33.64 -3.8,67.19 -21.28,96.26 -13.97,23.18 -34.21,42.47 -58.16,55.02 6.94,-36.3 7.51,-74.03 5.04,-110.61 -3.52,-53.31 -10.93,-106.52 -18.81,-159.36 -0.76,-4.94 -1.52,-9.98 -2.28,-14.92 0.95,-2.47 1.9,-5.04 2.85,-7.51 60.44,10.83 90.18,85.24 92.65,141.11z"/>
      <path class="fil8" d="M3142.27 1910.07c8.56,27.46 7.89,55.3 0.76,83.06 -24.7,96.93 -117.17,180.26 -220.08,177.98 -10.74,-0.28 -11.31,14.16 -2.37,17.68 16.82,6.56 33.73,12.92 50.55,19.39 -74.12,24.7 -155.08,-2.57 -228.72,-18.63 -77.73,-17.01 -158.22,-24.99 -237.28,-12.35 -44.37,7.13 -87.52,20.81 -126.67,43.05 -5.7,3.23 -3.99,9.69 0.38,12.26 4.46,30.5 13.69,60.44 17.86,91.13 4.66,34.3 5.7,69.08 4.47,103.57 -1.14,34.69 -4.56,69.28 -8.46,103.68 -3.42,30.5 -9.31,60.63 -13.21,91.04 -19.2,-18.44 -41.34,-33.83 -66.42,-41.63 -0.09,-0.57 -0.19,-1.14 -0.48,-1.71 -36.87,-65 -74.22,-130.85 -95.41,-203.07 -17.2,-58.63 -32.5,-152.42 28.13,-193.28 13.49,-9.12 29.84,-14.06 46.19,-13.96 16.91,0.09 29.83,6.56 43.14,16.53 4.28,3.23 10.07,-1.14 10.36,-5.89 0.1,0 0.1,-0.1 0.1,-0.19 2.66,-1.9 4.56,-5.04 3.89,-9.02 -15.77,-100.35 21.48,-203.74 95.22,-272.82 76.02,-71.17 172.09,-129.24 272.82,-156.5 92.17,-24.99 193.95,-22.14 280.8,20.15 40.57,19.67 77.54,47.41 106.33,82.29 16.44,19.86 30.41,42.48 38.11,67.28z"/>
      <path class="fil8" d="M3118.61 2192.59c19.86,31.07 21.86,68.22 17.67,103.96 -4.65,39.34 -15.11,78.78 -24.99,117.07 -4.94,19.29 -9.78,38.68 -15.2,57.87 -1.24,4.47 -2.57,8.93 -3.99,13.4 -17.3,-106.71 -40.29,-213.24 -72.79,-316.24 11.97,-5.32 23.67,-11.59 34.78,-18.81 4.94,1.71 10.07,2.28 15.3,3.8 6.36,1.81 12.35,4.66 18.06,8.08 12.64,7.5 23.18,18.43 31.17,30.89z"/>
      <path class="fil6" d="M3094.62 2712.8c-0.76,-26.7 -3.42,-53.31 -6.27,-79.63 -1.52,-13.78 -3.14,-27.65 -4.85,-41.43 -4.66,-38.2 -10.17,-76.21 -16.44,-114.22 -16.91,-101.68 -40.67,-201.55 -68.61,-300.66 -11.59,3.9 -23.38,6.94 -35.54,8.93 11.78,4.56 23.76,9.12 35.73,13.5 6.85,2.47 9.7,12.92 2.09,16.82 -39.53,20.43 -85.14,26.04 -129.24,22.14 -42.76,-3.71 -84.76,-15.02 -126.19,-25.56 -39.53,-10.07 -80.01,-17.11 -120.78,-19.86 -78.59,-5.42 -157.65,5.61 -230.25,36.59 15.39,27.08 21.19,61.2 25.09,91.22 4.37,34.59 5.13,69.65 3.61,104.53 -1.52,34.78 -5.13,69.56 -10.83,104.06 -5.89,35.44 -10.83,71.55 -19.39,106.52 7.22,7.98 14.07,16.34 20.33,24.8 3.8,5.04 -4.75,11.4 -8.74,6.65 -31.17,-36.97 -71.27,-73.55 -122.01,-76.87 -45.43,-3.04 -84.39,20.81 -95.98,65.85 -12.73,48.65 1.05,99.02 26.61,140.92 24.13,39.82 63.09,67.37 109.66,73.84 21.85,3.04 44.28,0.47 65.19,-6.65 10.64,-3.52 20.52,-8.46 30.03,-14.16 9.31,-5.61 19.39,-9.03 28.51,-14.92 5.7,-3.61 13.87,3.89 9.5,9.5 -9.31,12.26 -16.72,22.24 -30.41,29.93 -1.33,0.76 -2.66,1.43 -3.99,2.09 1.71,-0.19 3.52,0.29 4.94,2 60.05,77.07 145.39,129.9 241.17,149.28 89.32,18.15 184.54,4.09 264.93,-38.96 81.15,-43.52 146.15,-113.74 159.07,-207.63 3.04,-22.71 3.8,-45.7 3.04,-68.61zm-693.69 60.34l0 0c-13.69,-1.52 -25.47,-11.69 -37.06,-18.53 -8.74,-5.04 -17.49,-9.69 -26.23,-14.26 -0.95,1.71 -2.09,3.42 -3.04,5.13 -2.28,3.9 -4.65,7.8 -7.03,11.69 -2.47,4.18 -5.32,8.07 -7.98,12.16 -2.47,4.09 -5.32,8.17 -7.98,12.16 -1.9,2.57 -5.13,3.8 -8.17,2.09 -2.85,-1.8 -3.23,-5.13 -2.09,-8.08 2.09,-4.46 3.99,-8.83 6.08,-13.3 2.09,-4.37 3.99,-8.93 6.27,-13.2 2,-3.99 4.18,-8.08 6.28,-12.07 0.76,-1.43 1.52,-2.85 2.28,-4.28 -10.83,-5.51 -21.85,-10.83 -33.07,-15.87 -6.46,-3.04 -13.11,-5.99 -19.96,-8.84 -6.27,-2.76 -13.3,-4.37 -16.53,-11.03 -2.66,-5.79 -0.38,-11.4 5.51,-13.68 7.79,-2.76 15.58,2.19 22.43,5.23 6.27,2.76 12.54,5.51 18.81,8.45 12.73,6.08 25.28,12.64 37.44,19.58 12.73,7.13 25.08,14.82 37.44,22.61 10.83,7.03 25.28,13.69 31.55,25.37 1.9,3.52 -0.38,9.22 -4.94,8.65zm173.9 -288.02l0 0c7.79,-27.56 23.37,-54.74 46.56,-72.03 24.33,-18.15 58.91,-30.12 89.32,-22.9 3.99,0.95 7.79,4.65 8.74,8.65 0.95,4.75 0.38,8.56 -3.23,12.07 -4.94,4.56 -9.88,3.23 -15.78,2.38 -7.22,-1.05 -15.01,-0.09 -22.05,1.24 -13.3,2.47 -25.66,7.03 -37.44,13.69 -24.33,13.68 -46,32.97 -55.87,59.77 -2.28,6.27 -12.17,3.8 -10.26,-2.85zm132.85 122.59l0 0c0,27.37 -14.07,49.6 -31.36,49.6 -17.48,0 -31.55,-22.24 -31.55,-49.6 0,-27.37 14.06,-49.61 31.55,-49.61 17.3,0 31.36,22.24 31.36,49.61zm-74.69 288.5l0 0c-137.6,-41.43 -78.3,-179.31 -78.3,-179.31l248.2 50.56c0,0 -62.91,161.07 -169.9,128.76zm260.37 -230.82l0 0c-16.72,9.5 -33.45,19.2 -50.18,29.18 -8.55,5.13 -17.1,10.26 -25.46,15.58 -7.22,4.46 -14.07,10.07 -22.43,11.69 -4.18,0.76 -8.55,-3.52 -5.89,-7.51 5.13,-7.5 13.3,-12.07 20.72,-17 7.79,-5.32 15.58,-10.46 23.19,-15.68 10.83,-7.13 21.85,-14.06 32.69,-21.1 -6.84,-2.19 -13.87,-4.37 -21.29,-5.7 -14.25,-2.76 -28.89,-3.89 -43.52,-4.09 -5.89,-0.09 -10.83,-4.94 -10.83,-10.93 -0.38,-41.15 0.38,-82.48 1.9,-123.63 0.38,-14.35 23,-14.35 22.24,0 -1.71,37.72 -2.28,75.45 -2.28,113.18 12.17,0.76 24.33,2.37 36.3,4.94 15.01,3.23 31.36,6.94 44.85,14.73 6.08,3.61 6.27,12.92 0,16.34zm46.75 -8.07l0 0c-17.29,0 -31.35,-22.24 -31.35,-49.6 0,-27.37 14.06,-49.61 31.35,-49.61 17.3,0 31.36,22.24 31.36,49.61 0,27.37 -14.06,49.6 -31.36,49.6zm35.16 -229.11l0 0c-11.97,-6.75 -24.7,-11.41 -38.2,-13.88 -7.03,-1.23 -14.63,-2.09 -21.85,-0.95 -5.7,0.95 -10.45,1.9 -15.11,-2.47 -3.52,-3.32 -4.09,-7.41 -3.14,-12.07 0.95,-3.99 4.75,-7.69 8.74,-8.65 30.22,-7.13 65,4.65 89.33,22.9 23.19,17.29 38.77,44.37 46.56,72.03 1.9,6.75 -7.98,9.12 -10.26,2.85 -9.89,-26.8 -31.55,-46.19 -56.07,-59.77z"/>
      <path class="fil5" d="M2221.67 3969.52c2.47,-10.5 4.92,-21.01 7.5,-31.5 -35.54,-8.55 -66.9,-30.69 -97.5,-49.6 -35.35,-21.95 -70.61,-44 -105.29,-67 -49.42,-32.69 -98.64,-67.28 -144.25,-105.76 0.29,2.37 -0.29,4.94 -2.09,7.31 -1.33,1.81 -3.52,4.75 -4.09,5.51 -35.35,48.08 -66.61,99.49 -94.26,152.33 -4.85,9.25 -9.54,18.61 -14.17,28.01 146.64,44.74 299.96,62.06 454.15,60.7z"/>
      <path class="fil6" d="M3078.13 3848.31c-6.56,-2.94 -18.15,3.04 -24.8,4.94 -8.17,2.28 -16.25,4.66 -24.32,7.13 -32.5,10.07 -63.19,23.85 -93.41,39.25 -14.44,7.31 -25.94,-12.64 -12.64,-21.57 25.66,-17.39 51.31,-34.78 75.55,-54.17 11.59,-9.31 22.8,-19.1 33.54,-29.36 5.32,-5.13 10.55,-10.45 15.49,-15.87 3.71,-4.09 12.83,-11.31 14.16,-16.63 1.81,-6.94 -8.46,0.76 -11.59,2.66 -7.6,4.56 -15.11,9.5 -22.52,14.25 -14.45,9.22 -28.89,18.44 -43.43,27.65 -20.24,12.83 -40.57,25.56 -61.1,38.2 -7.98,6.46 -16.15,12.83 -24.42,19.19 -11.5,8.74 -22.9,-10.83 -11.41,-19.48 29.18,-21.86 56.73,-45.52 82.87,-70.98 11.97,-11.69 23.85,-23.57 35.44,-35.64 4.46,-4.65 14.82,-12.73 14.82,-19.95 0,-8.27 -10.17,0.09 -14.07,2.28 -28.03,15.77 -55.87,31.65 -83.62,47.7 -53.03,30.59 -105.96,62.33 -157.65,95.02 -5.13,3.33 -11.21,-4.47 -6.56,-8.46 5.7,-4.85 11.4,-9.6 17.2,-14.35 -0.95,-2.38 -1.04,-5.13 0.19,-7.98 12.07,-28.32 23,-57.11 32.12,-86.57 5.22,-16.53 21.47,-52.74 8.83,-69.94 -42.09,60.06 -83.15,121.63 -128.76,179.03 -17.58,22.24 -37.44,41.24 -59.87,58.44 -5.7,4.37 -11.21,9.22 -17.1,13.3 -10.74,7.41 -27.46,9.69 -40.01,13.4 -65.28,19.39 -130.47,39.54 -195.09,61.2 -130.28,43.71 -258.47,93.41 -384.09,149.19 -14.35,6.37 -26.89,-14.54 -12.45,-21.19 68.99,-31.93 138.93,-61.76 209.63,-89.61 6.18,-2.38 12.45,-4.75 18.63,-7.13 4.3,-20.99 9.06,-41.88 13.98,-62.76 -154.18,1.37 -307.5,-15.95 -454.15,-60.7 -38.63,78.41 -69.11,161.67 -82.95,248.13 -16.15,101.11 -1.33,211.24 53.69,298.85 43.9,69.94 108.8,125.72 192.8,136.08 77.26,9.5 154.23,-14.16 223.69,-46.09 81.91,-37.63 157.65,-88.09 229.01,-142.83 68.13,-52.26 134.37,-108.9 194.43,-170.29 42.67,-43.61 84.67,-87.52 125.72,-132.56 8.93,-9.79 17.49,-19.96 26.51,-29.65 6.65,-7.22 16.44,-10.45 25.19,-14.82 34.87,-17.67 69.65,-35.73 103.96,-54.45 33.45,-18.25 66.52,-37.25 99.2,-57.02 33.93,-20.53 68.8,-41.05 100.82,-64.71 5.32,-3.99 35.07,-23.94 18.53,-31.17z"/>
      <path class="fil4" d="M3041.54 2485.08c1.9,6.74 -7.89,9.12 -10.26,2.85 -9.78,-26.8 -31.55,-46.19 -55.97,-59.77 -11.97,-6.75 -24.7,-11.41 -38.2,-13.87 -7.03,-1.24 -14.73,-2.09 -21.85,-0.95 -5.7,0.95 -10.45,1.9 -15.11,-2.47 -3.52,-3.33 -4.18,-7.41 -3.13,-12.07 0.85,-3.99 4.66,-7.69 8.65,-8.65 30.31,-7.13 65,4.66 89.32,22.9 23.28,17.3 38.87,44.38 46.56,72.03z"/>
      <path class="fil9" d="M2951.37 4332.85l43.61 191.38 -221.22 0c-16.54,0 -31.93,8.37 -40.96,22.14 -9.13,13.87 -10.64,31.27 -3.99,46.47l74.97 172.85c-15.11,0.67 -30.22,3.52 -45.61,5.23 -22.71,2.57 -45.42,4.75 -68.23,6.27 -45.71,3.13 -91.51,4.46 -137.22,3.89 -45.71,-0.67 -91.42,-3.23 -136.93,-7.6 -23.28,-2.28 -46.47,-4.66 -69.56,-7.98 -21.09,-3.04 -42.95,-5.51 -63.76,-10.64 -0.95,-40.86 -4.37,-81.82 -5.99,-122.68 -1.52,-40.48 -1.71,-80.77 -2.47,-121.25 -0.09,-2.76 -0.09,-5.61 -0.19,-8.37 25.66,-16.15 50.74,-33.26 75.17,-50.74 74.98,-53.98 145.2,-114.13 213.33,-176.46 36.02,-32.88 71.27,-66.43 105.67,-100.92l119.26 220.56 164.11 -62.15z"/>
      <g>
       <path class="fil13" d="M2986.1 5186.03c-128,0.19 -256.09,0.48 -384.09,0.95 -62.24,0.29 -124.48,0.57 -186.63,0.95 -14.25,0.09 -28.69,0.09 -42.95,0.19 -0.19,-0.67 -0.38,-1.24 -0.76,-1.9 -34.02,-62.53 -55.11,-133.6 -62.91,-204.3 -3.8,-34.69 -4.75,-69.75 -2.57,-104.53 1.24,-17.86 3.14,-35.54 5.8,-53.21 1.52,-9.31 2.66,-18.72 4.37,-27.94 0.95,-4.37 2.09,-8.36 2.28,-12.26 8.55,1.71 17.29,3.33 25.84,4.66 22.24,3.42 44.47,6.56 66.71,9.12 46.94,5.51 94.27,8.17 141.59,8.74 47.32,0.67 94.46,-0.85 141.78,-4.75 22.8,-2 45.42,-4.18 68.23,-7.13 16.91,-2.19 33.83,-3.51 49.8,-8.45l19.57 45.14 153.94 354.73z"/>
      </g>
      <path class="fil14" d="M2553.73 4879.19c1.9,104.15 18.34,208.01 48.28,307.79 -62.24,0.29 -124.48,0.57 -186.63,0.95 -14.25,0.09 -28.69,0.09 -42.95,0.19 -0.19,-0.67 -0.38,-1.24 -0.76,-1.9 -34.02,-62.53 -55.11,-133.6 -62.91,-204.3 -3.8,-34.69 -4.75,-69.75 -2.57,-104.53 1.24,-17.86 3.14,-35.54 5.8,-53.21 1.52,-9.31 2.66,-18.72 4.37,-27.94 0.95,-4.37 2.09,-8.36 2.28,-12.26 8.55,1.71 17.29,3.33 25.84,4.66 22.24,3.42 44.47,6.56 66.71,9.12 46.94,5.51 94.27,8.17 141.59,8.74 47.32,0.67 94.46,-0.85 141.78,-4.75 22.8,-2 45.42,-4.18 68.23,-7.13 16.91,-2.19 33.83,-3.51 49.8,-8.45l19.57 45.14c-92.84,15.96 -185.59,31.93 -278.43,47.89z"/>
      <path class="fil11" d="M2974.65 3115.19c7.7,18.43 13.59,37.54 18.06,57.02 -37.82,22.81 -73.93,48.65 -108.52,75.93 -34.49,26.99 -68.89,55.11 -99.11,86.95 -24.99,-35.63 -50.17,-71.08 -74.5,-107.28 1.33,-5.61 0.76,-12.07 0.57,-17.58 -0.38,-11.87 -0.57,-23.85 -0.48,-35.73 0,-13.4 0.48,-26.7 0.95,-40 87.71,-6.94 175.32,-13.59 263.03,-19.29z"/>
      <path class="fil4" d="M2940.15 2558.06c17.3,0 31.36,22.23 31.36,49.6 0,27.37 -14.06,49.6 -31.36,49.6 -17.39,0 -31.46,-22.24 -31.46,-49.6 0,-27.37 14.07,-49.6 31.46,-49.6z"/>
      <path class="fil4" d="M2893.4 2649c6.08,3.61 6.18,12.93 0,16.35 -16.82,9.5 -33.54,19.19 -50.17,29.17 -8.56,5.13 -17.11,10.26 -25.56,15.58 -7.13,4.46 -14.06,10.07 -22.43,11.69 -4.09,0.76 -8.46,-3.52 -5.8,-7.51 5.04,-7.51 13.3,-12.07 20.72,-17.01 7.7,-5.32 15.49,-10.46 23.19,-15.68 10.83,-7.13 21.76,-14.06 32.69,-21.1 -6.94,-2.18 -13.97,-4.37 -21.29,-5.7 -14.35,-2.76 -28.98,-3.9 -43.61,-4.09 -5.89,-0.09 -10.83,-4.94 -10.83,-10.93 -0.28,-41.15 0.38,-82.48 1.9,-123.63 0.48,-14.35 23,-14.35 22.33,0 -1.71,37.73 -2.37,75.45 -2.37,113.18 12.26,0.76 24.33,2.37 36.3,4.94 15.11,3.23 31.45,6.94 44.94,14.73z"/>
      <path class="fil5" d="M2887.22 3084.69c0.48,5.13 0.48,11.41 2.85,16.25 -62.62,5.13 -125.24,10.07 -187.96,14.73 -0.47,0.09 -0.85,0.28 -1.33,0.38 -0.47,-0.09 -0.85,-0.28 -1.33,-0.38 -59.01,-4.37 -117.92,-9.03 -176.84,-13.78 -0.57,-7.51 -4.18,-14.73 -6.74,-21.95 -3.9,-10.83 -7.7,-21.67 -11.78,-32.5 -7.51,-19.67 -15.58,-39.15 -24.14,-58.44 -8.26,-18.72 -17.01,-37.82 -26.51,-56.54 47.8,49.99 108.04,88 173.9,109.19 83.43,26.8 176.28,23.47 258.76,-5.8 0,2.85 0,5.61 0.09,8.46 0.1,6.56 0.48,13.11 0.38,19.67 -0.09,6.84 0,13.78 0.67,20.71z"/>
      <path class="fil3 str0" d="M2554.73 2716.85l248.11 50.55c0,0 -62.91,161.07 -169.91,128.76 -137.5,-41.43 -78.2,-179.31 -78.2,-179.31z"/>
      <path class="fil9" d="M2708.39 3265.91l41.71 183.4c-155.37,59.39 -285.26,128.19 -294.01,132.85l-10.83 5.8 116.69 328.22c-110.89,29.07 -219.98,65.09 -327.17,105.67 17.86,-67.09 32.97,-135.13 48.46,-202.69 17.39,-76.02 33.35,-152.42 51.6,-228.25 1.9,-7.89 -10.17,-11.31 -12.26,-3.33 -19.86,75.36 -41.53,150.14 -61.29,225.5 -2.37,9.12 -4.85,18.34 -7.22,27.46 -12.07,-9.6 -25.56,-17.3 -38.48,-25.75 -15.87,-10.36 -31.55,-21 -47.04,-31.93 -31.07,-21.95 -61.38,-44.76 -91.7,-67.76 -14.63,-11.11 -29.36,-22.33 -44.09,-33.54 5.8,-4.65 8.83,-13.11 12.26,-19.48 4.85,-8.74 9.69,-17.48 14.54,-26.22 4.75,-8.46 9.41,-16.82 14.16,-25.18 4.09,-7.41 11.88,-16.92 6.65,-25.56 -4.18,-6.94 -15.01,-8.46 -22.05,-10.83 -9.41,-3.14 -18.91,-6.28 -28.32,-9.41 -8.65,-2.95 -17.96,-6.65 -25.94,-0.09 -6.94,5.7 -11.98,15.2 -17.2,22.43 -6.17,8.55 -12.54,17.01 -18.43,25.85 -2.85,4.37 -7.22,9.6 -9.98,15.02 -7.98,-5.23 -16.15,-10.26 -24.23,-15.3 46.85,-72.13 96.26,-142.44 148.05,-211.15 51.12,-67.94 107.38,-134.46 183.11,-175.8 40,-21.76 84.29,-34.97 129.9,-35.82 38.2,22.52 75.36,46.18 110.71,72.98 37.34,28.31 70.8,60.72 105.38,92.27 4.28,3.9 10.74,3.13 13.97,-1.8 24.99,-39.44 53.31,-77.44 75.45,-118.69 0.19,0.47 0.48,0.86 0.76,1.33l6.84 29.84z"/>
      <path class="fil4" d="M2719.41 2398.79c0.95,4.75 0.47,8.56 -3.23,12.07 -4.85,4.56 -9.89,3.23 -15.78,2.38 -7.13,-1.05 -15.02,-0.1 -22.04,1.23 -13.21,2.47 -25.66,7.03 -37.35,13.69 -24.33,13.68 -46.09,32.97 -55.97,59.77 -2.28,6.27 -12.07,3.8 -10.17,-2.85 7.7,-27.56 23.28,-54.74 46.46,-72.03 24.42,-18.15 59.02,-30.12 89.33,-22.9 3.99,0.95 7.79,4.66 8.74,8.65z"/>
      <path class="fil4" d="M2676.27 2558.06c17.29,0 31.45,22.23 31.45,49.6 0,27.37 -14.16,49.6 -31.45,49.6 -17.39,0 -31.46,-22.24 -31.46,-49.6 0,-27.37 14.07,-49.6 31.46,-49.6z"/>
      <path class="fil11" d="M2690.9 3174.49c0.1,11.88 0,23.85 -0.47,35.73 -0.19,5.51 -0.76,11.98 0.57,17.68 -24.33,36.11 -49.51,71.56 -74.5,107.19 -30.22,-31.83 -64.62,-59.96 -99.11,-86.95 -34.59,-27.27 -70.7,-53.12 -108.52,-75.93 4.37,-19.48 10.36,-38.58 18.06,-57.02 87.71,5.7 175.32,12.35 263.03,19.29 0.48,13.3 0.95,26.61 0.95,40z"/>
      <path class="fil4" d="M2405.92 2764.45c1.81,3.52 -0.38,9.22 -5.04,8.65 -13.69,-1.52 -25.37,-11.69 -37.06,-18.53 -8.65,-5.04 -17.39,-9.69 -26.22,-14.25 -0.95,1.71 -2,3.42 -2.95,5.13 -2.37,3.89 -4.65,7.79 -7.03,11.69 -2.47,4.18 -5.32,8.08 -7.98,12.16 -2.57,4.09 -5.32,8.17 -8.07,12.17 -1.81,2.57 -5.13,3.8 -8.08,2.09 -2.95,-1.8 -3.33,-5.13 -2.09,-8.07 2,-4.47 3.99,-8.84 6.08,-13.3 2.09,-4.37 3.89,-8.93 6.18,-13.21 2.09,-3.99 4.18,-8.08 6.36,-12.07 0.67,-1.43 1.43,-2.85 2.19,-4.28 -10.83,-5.51 -21.86,-10.83 -32.98,-15.87 -6.56,-3.04 -13.21,-5.99 -19.95,-8.84 -6.27,-2.76 -13.4,-4.37 -16.54,-11.02 -2.66,-5.8 -0.38,-11.41 5.51,-13.69 7.7,-2.75 15.49,2.19 22.43,5.23 6.27,2.76 12.54,5.51 18.72,8.46 12.73,6.08 25.28,12.64 37.54,19.57 12.73,7.13 25.09,14.82 37.35,22.62 10.93,7.03 25.37,13.68 31.64,25.37z"/>
      <path class="fil4" d="M2266.8 2102.5c0.57,0 2.19,0.38 2.38,0.38 0.85,0.19 1.61,0.29 2.37,0.48 2.66,0.76 5.32,1.52 7.98,2.47 5.51,2.18 11.5,4.56 16.91,7.98 5.13,3.33 9.89,7.32 14.06,11.78 5.32,5.7 -2.66,13.3 -8.45,8.46 -3.9,-3.23 -8.27,-5.89 -12.93,-7.79 -4.37,-1.81 -8.74,-3.13 -12.93,-3.52 -2.56,-0.19 -5.13,-0.19 -7.69,0 -0.38,0 -2.95,0.09 -2.76,0 -1.71,0.19 -3.42,0.48 -5.13,0.67 -0.57,0.09 -1.14,0.09 -1.81,0.19 -0.09,0 -0.09,0 -0.09,0 -1.33,0.29 -2.56,0.57 -3.8,0.85 -2.57,0.67 -5.04,1.52 -7.51,2.37 -6.37,2.38 -13.02,-2.56 -14.82,-8.36 -2,-6.08 2.28,-13.4 8.36,-14.82 6.46,-1.52 13.5,-2.47 20.15,-2 1.9,0.19 3.89,0.47 5.7,0.85z"/>
      <path class="fil4" d="M2301.3 2092.24c0.09,0.67 0.09,1.33 0.09,2.09 0,0.48 -0.09,0.85 -0.19,1.33 0,0.09 0,0.09 0,0.19 -0.09,0.19 -0.09,0.38 -0.09,0.48 0,0.09 0,0.28 -0.09,0.38 -0.19,2.95 -2.09,5.42 -5.13,5.8 -2.85,0.48 -5.8,-1.33 -6.56,-4.28 0,-0.09 -0.1,-0.19 -0.1,-0.38 -0.09,-0.19 -0.28,-0.67 -0.57,-1.33 -0.19,-0.57 -0.38,-1.24 -0.57,-1.8 -0.38,-1.24 -0.76,-2.47 -1.14,-3.61 -0.09,-0.19 -0.19,-0.38 -0.28,-0.67 -0.19,-0.47 -0.48,-1.04 -0.76,-1.52 -0.57,-1.15 -1.14,-2.19 -1.9,-3.23 -0.09,-0.29 -0.29,-0.57 -0.48,-0.85 -0.28,-0.29 -0.57,-0.67 -0.76,-0.86 -0.85,-0.95 -1.81,-1.8 -2.66,-2.66 -1.52,-1.61 -3.23,-2.94 -4.85,-4.28 -0.67,-0.48 -1.33,-0.95 -1.9,-1.33 -3.33,-1.71 -5.61,-5.32 -5.61,-8.93 0,-0.09 0,-0.19 0,-0.29 -0.09,-4.56 3.04,-7.98 7.13,-9.41 0.1,-0.1 0.19,-0.1 0.29,-0.1 4.09,-1.52 8.65,0.86 11.02,4.18 -0.28,-0.38 -0.57,-0.76 -0.85,-1.23 2.85,2.47 5.32,5.22 7.51,8.26 0.38,0.67 0.85,1.33 1.23,2 0.57,0.76 0.85,1.62 1.24,2.47 0.09,0.19 0.57,1.14 0.76,1.52 0.57,1.14 1.04,2.28 1.52,3.52 1.14,2.85 2.19,5.7 2.76,8.65 0.48,1.9 0.76,3.89 0.95,5.89z"/>
      <path class="fil11" d="M2248.08 3863.33c-5.13,19.86 -10.26,39.72 -15.3,59.67 -33.45,-11.02 -63.29,-34.87 -92.65,-53.4 -34.59,-21.86 -68.99,-43.9 -102.91,-66.8 -65.57,-44.28 -127.62,-92.18 -186.92,-144.54 9.79,-18.44 21.48,-35.63 35.44,-51.22 9.89,5.7 19.48,12.07 28.89,18.72 0.95,1.9 2.76,3.23 4.85,3.52 17.96,13.02 35.44,26.99 52.93,40.01 30.5,22.71 60.91,45.61 91.13,68.61 30.31,23 60.63,45.8 91.7,67.76 15.49,10.93 31.17,21.67 47.04,32.02 14.73,9.6 29.27,19.57 45.8,25.66z"/>
      <path class="fil9" d="M2060.88 3593.84c0.76,0.19 1.52,0.57 2.38,0.85 -1.33,2.28 -3.14,4.66 -3.99,6.18 -2,3.61 -3.99,7.13 -5.99,10.74 -4.08,7.41 -8.17,14.92 -12.35,22.33 -3.99,7.13 -7.98,14.26 -11.97,21.28 -3.04,5.32 -7.31,10.93 -8.83,16.92 -11.41,-8.55 -22.9,-17.1 -34.5,-25.47 -4.85,-3.52 -9.88,-6.84 -14.83,-10.26 0.19,-0.19 0.38,-0.28 0.48,-0.47 1.9,-2.19 3.71,-4.46 5.61,-6.75 3.71,-4.46 7.32,-9.03 10.83,-13.69 7.22,-9.69 14.44,-19.39 21.67,-29.17 1.43,-1.9 2.94,-5.04 4.94,-6.56 1.71,-1.33 2.19,-0.48 4.66,0.28 5.61,1.81 11.21,3.71 16.72,5.52 5.61,1.8 11.21,3.7 16.82,5.51 2.76,0.85 5.61,1.8 8.36,2.76zm-30.12 17.29l0 0c-0.19,-1.14 -0.38,-2.37 -0.48,-3.52 -0.67,-2.28 -1.81,-4.28 -3.52,-5.98 -0.85,-0.67 -1.8,-1.33 -2.66,-2.09 -2.09,-1.14 -4.37,-1.8 -6.74,-1.8 -1.9,-0.09 -3.61,0.28 -5.23,1.14 -1.61,0.57 -3.04,1.52 -4.28,2.76 -1.33,1.23 -2.28,2.66 -2.76,4.37 -0.85,1.61 -1.24,3.33 -1.14,5.13 0.1,1.24 0.29,2.37 0.48,3.61 0.57,2.18 1.71,4.18 3.42,5.89 0.85,0.67 1.8,1.43 2.66,2.09 2.09,1.24 4.37,1.8 6.84,1.8 1.8,0.1 3.52,-0.28 5.13,-1.14 1.61,-0.57 3.14,-1.43 4.28,-2.76 1.33,-1.24 2.28,-2.66 2.76,-4.37 0.86,-1.52 1.24,-3.23 1.24,-5.13z"/>
      <path class="fil4" d="M2030.28 3607.61c0.1,1.14 0.28,2.38 0.48,3.52 0,1.9 -0.38,3.61 -1.24,5.13 -0.47,1.71 -1.43,3.14 -2.76,4.37 -1.14,1.33 -2.66,2.19 -4.28,2.76 -1.61,0.85 -3.33,1.24 -5.13,1.14 -2.47,0 -4.75,-0.57 -6.84,-1.8 -0.86,-0.67 -1.81,-1.43 -2.66,-2.09 -1.71,-1.71 -2.85,-3.71 -3.42,-5.89 -0.19,-1.24 -0.38,-2.38 -0.48,-3.61 -0.09,-1.8 0.29,-3.52 1.14,-5.13 0.48,-1.71 1.43,-3.14 2.76,-4.37 1.23,-1.24 2.66,-2.19 4.28,-2.76 1.61,-0.85 3.33,-1.23 5.23,-1.14 2.37,0 4.65,0.67 6.74,1.8 0.86,0.76 1.81,1.43 2.66,2.09 1.71,1.71 2.85,3.7 3.52,5.98z"/>
     </g>
     <path class="fil9" d="M2576.79 2634.66c0,34.07 -27.61,61.69 -61.68,61.69 -34.07,0 -61.68,-27.62 -61.68,-61.69 0,-34.06 27.61,-61.68 61.68,-61.68 34.07,0 61.68,27.61 61.68,61.68z"/>
     <path class="fil9" d="M3094.62 2712.8c-5.04,1.33 -10.36,2.09 -15.87,2.09 -34.11,0 -61.77,-27.56 -61.77,-61.67 0,-34.02 27.65,-61.67 61.77,-61.67 1.61,0 3.23,0.1 4.75,0.19 1.71,13.78 3.32,27.65 4.85,41.43 2.85,26.32 5.51,52.93 6.27,79.63z"/>
     <path class="fil9" d="M4041.45 3354.03c0,34.02 -27.56,61.67 -61.67,61.67 -12.64,0 -24.42,-3.8 -34.21,-10.36 2.76,-36.49 7.03,-72.79 12.54,-109 6.75,-2.57 14.06,-3.99 21.67,-3.99 34.11,0 61.67,27.56 61.67,61.67z"/>
     <path class="fil9" d="M4595.22 3302.49c0,34.07 -27.61,61.68 -61.68,61.68 -34.07,0 -61.68,-27.61 -61.68,-61.68 0,-34.07 27.61,-61.68 61.68,-61.68 34.07,0 61.68,27.61 61.68,61.68z"/>
     <path class="fil3" d="M3043.43 1966.99c-12.83,31.01 -37.8,54.25 -64.73,73.2 -28.73,20.22 -60.4,36.74 -93.12,49.46 -65.52,25.48 -136.25,35.3 -206.27,28.83 -7.09,-0.65 -6.8,10.03 0,10.92 75.4,9.87 153.28,0.4 224.13,-27.41 34.66,-13.6 67.87,-31.24 98.04,-53.12 27.2,-19.72 53,-44.7 55.51,-80.05 0.59,-8.45 -10.84,-8.41 -13.56,-1.83z"/>
     <path class="fil3" d="M2995.44 1957.8c-0.6,-4.25 -6.44,-5.97 -9.71,-3.95 -2.13,1.32 -3.91,2.56 -5.26,4.75 -0.97,1.56 -1.72,3.28 -2.59,4.9 -1.75,3.26 -3.63,6.44 -5.63,9.55 -3.87,6.02 -8.03,11.46 -12.7,16.87 -9.59,11.08 -20.94,20.11 -32.7,28.76 -2.23,1.64 -3.47,4.24 -2.28,6.95 1.01,2.3 3.96,4.28 6.57,3.22 15.09,-6.09 28.27,-16.17 39.54,-27.8 5.63,-5.8 10.64,-12.19 15.15,-18.9 2.25,-3.35 4.35,-6.8 6.3,-10.33 1.14,-2.07 2.39,-4.2 3.15,-6.44 0.92,-2.69 0.55,-4.83 0.17,-7.59z"/>
     <path class="fil3" d="M4360.76 2987.13c-10.46,-4.2 -23.13,-1.04 -34.12,-0.52 -12.17,0.57 -24.38,0.65 -36.56,0.14 -24.8,-1.04 -49.37,-4.22 -73.29,-11 -47.44,-13.44 -89.07,-40.33 -120.85,-78.02 -3.97,-4.71 -12.37,1.63 -8.63,6.66 30.55,41.04 72.48,70.65 121.23,86.22 24.36,7.78 49.97,12.39 75.47,14.23 13.5,0.98 27.07,1.19 40.6,0.79 12.22,-0.36 27.27,0.94 37.77,-6.16 5.12,-3.46 3.8,-10.17 -1.61,-12.35z"/>
     <path class="fil3" d="M4390.66 2941.11c0.41,0.94 0.07,0.57 -1,-1.11 -0.92,-0.91 -2,-1.54 -3.24,-1.89 -1.39,-0.38 -2.8,-0.26 -4.21,-0.2 -2.65,0.12 -5.28,0.26 -7.93,0.33 -5.09,0.13 -10.2,0.1 -15.29,-0.09 -5.09,-0.19 -10.17,-0.51 -15.25,-0.88 -2.63,-0.19 -5.24,-0.52 -7.87,-0.7 -2.63,-0.19 -5.22,0.09 -7.83,-0.07 -6.34,-0.37 -7.35,9.18 -1.47,10.87 2.54,0.73 4.92,1.79 7.52,2.34 2.57,0.55 5.2,0.87 7.8,1.24 5.5,0.78 10.99,1.34 16.53,1.65 5.28,0.29 10.57,0.41 15.86,0.35 2.64,-0.03 5.29,-0.06 7.93,-0.21 1.37,-0.08 2.89,-0.08 4.21,-0.44 2.06,-0.57 3.32,-2.17 4.25,-3.29 1.86,-2.26 2.36,-5.66 0,-7.88z"/>
    </g>
   </g>
  </g>
 </g>
</svg>
